<?xml version="1.0" encoding="UTF-8" standalone="no"?>
<!DOCTYPE svg PUBLIC "-//W3C//DTD SVG 1.1//EN"
 "http://www.w3.org/Graphics/SVG/1.1/DTD/svg11.dtd">
<!-- Generated by graphviz version 13.0.1 (20250615.1724)
 -->
<!-- Title: GenGraph Pages: 1 -->
<svg width="472pt" height="250pt"
 viewBox="0.00 0.00 472.00 250.00" xmlns="http://www.w3.org/2000/svg" xmlns:xlink="http://www.w3.org/1999/xlink">
<g id="graph0" class="graph" transform="scale(1 1) rotate(0) translate(4 245.5)">
<title>GenGraph</title>
<polygon fill="#12131e" stroke="none" points="-4,4 -4,-245.5 468,-245.5 468,4 -4,4"/>
<!-- n7da2ef51 -->
<g id="node1" class="node">
<title>n7da2ef51</title>
<polygon fill="none" stroke="#c4c5bf" points="361.75,-185.5 361.75,-241 464,-241 464,-185.5 361.75,-185.5"/>
<text xml:space="preserve" text-anchor="middle" x="412.88" y="-228.45" font-family="Arial" font-size="9.00" fill="#c4c5bf"> </text>
<polyline fill="none" stroke="#c4c5bf" points="361.75,-222.5 464,-222.5"/>
<text xml:space="preserve" text-anchor="middle" x="412.88" y="-209.95" font-family="Arial" font-size="9.00" fill="#c4c5bf">UGConst: n7da2ef51</text>
<polyline fill="none" stroke="#c4c5bf" points="361.75,-204 464,-204"/>
<text xml:space="preserve" text-anchor="middle" x="412.62" y="-191.45" font-family="Arial" font-size="9.00" fill="#c4c5bf">out</text>
</g>
<!-- n64bff049 -->
<g id="node6" class="node">
<title>n64bff049</title>
<polygon fill="none" stroke="#c4c5bf" points="268.62,-93 268.62,-148.5 361.12,-148.5 361.12,-93 268.62,-93"/>
<text xml:space="preserve" text-anchor="middle" x="291.5" y="-135.95" font-family="Arial" font-size="9.00" fill="#c4c5bf">in1</text>
<polyline fill="none" stroke="#c4c5bf" points="314.38,-130 314.38,-148.5"/>
<text xml:space="preserve" text-anchor="middle" x="337.75" y="-135.95" font-family="Arial" font-size="9.00" fill="#c4c5bf">in2</text>
<polyline fill="none" stroke="#c4c5bf" points="268.62,-130 361.12,-130"/>
<text xml:space="preserve" text-anchor="middle" x="314.88" y="-117.45" font-family="Arial" font-size="9.00" fill="#c4c5bf">UGMult: n64bff049</text>
<polyline fill="none" stroke="#c4c5bf" points="268.62,-111.5 361.12,-111.5"/>
<text xml:space="preserve" text-anchor="middle" x="314.5" y="-98.95" font-family="Arial" font-size="9.00" fill="#c4c5bf">out</text>
</g>
<!-- n7da2ef51&#45;&gt;n64bff049 -->
<g id="edge4" class="edge">
<title>n7da2ef51:s&#45;&gt;n64bff049:n</title>
<path fill="none" stroke="#c4c5bf" d="M412.62,-185C412.62,-150.53 347.36,-181.23 338.7,-155.41"/>
<polygon fill="#c4c5bf" stroke="#c4c5bf" points="340.43,-155.19 337.97,-150.5 336.97,-155.7 340.43,-155.19"/>
</g>
<!-- n26651b3c -->
<g id="node2" class="node">
<title>n26651b3c</title>
<polygon fill="none" stroke="#c4c5bf" points="0,-185.5 0,-241 103.75,-241 103.75,-185.5 0,-185.5"/>
<text xml:space="preserve" text-anchor="middle" x="51.75" y="-228.45" font-family="Arial" font-size="9.00" fill="#c4c5bf">in</text>
<polyline fill="none" stroke="#c4c5bf" points="0,-222.5 103.75,-222.5"/>
<text xml:space="preserve" text-anchor="middle" x="51.88" y="-209.95" font-family="Arial" font-size="9.00" fill="#c4c5bf">UGClock: n26651b3c</text>
<polyline fill="none" stroke="#c4c5bf" points="0,-204 103.75,-204"/>
<text xml:space="preserve" text-anchor="middle" x="51.88" y="-191.45" font-family="Arial" font-size="9.00" fill="#c4c5bf">out</text>
</g>
<!-- n858dceac -->
<g id="node5" class="node">
<title>n858dceac</title>
<polygon fill="none" stroke="#c4c5bf" points="100.38,-93 100.38,-148.5 197.38,-148.5 197.38,-93 100.38,-93"/>
<text xml:space="preserve" text-anchor="middle" x="124.25" y="-135.95" font-family="Arial" font-size="9.00" fill="#c4c5bf">in1</text>
<polyline fill="none" stroke="#c4c5bf" points="148.12,-130 148.12,-148.5"/>
<text xml:space="preserve" text-anchor="middle" x="172.5" y="-135.95" font-family="Arial" font-size="9.00" fill="#c4c5bf">in2</text>
<polyline fill="none" stroke="#c4c5bf" points="100.38,-130 197.38,-130"/>
<text xml:space="preserve" text-anchor="middle" x="148.88" y="-117.45" font-family="Arial" font-size="9.00" fill="#c4c5bf">UGMult: n858dceac</text>
<polyline fill="none" stroke="#c4c5bf" points="100.38,-111.5 197.38,-111.5"/>
<text xml:space="preserve" text-anchor="middle" x="148.75" y="-98.95" font-family="Arial" font-size="9.00" fill="#c4c5bf">out</text>
</g>
<!-- n26651b3c&#45;&gt;n858dceac -->
<g id="edge1" class="edge">
<title>n26651b3c:s&#45;&gt;n858dceac:n</title>
<path fill="none" stroke="#c4c5bf" d="M51.88,-185C51.88,-151.46 114.96,-180.48 123.33,-155.25"/>
<polygon fill="#c4c5bf" stroke="#c4c5bf" points="125.04,-155.7 124.03,-150.5 121.57,-155.19 125.04,-155.7"/>
</g>
<!-- nb44f61f6 -->
<g id="node3" class="node">
<title>nb44f61f6</title>
<polygon fill="none" stroke="#c4c5bf" points="122.25,-185.5 122.25,-241 221.5,-241 221.5,-185.5 122.25,-185.5"/>
<text xml:space="preserve" text-anchor="middle" x="171.88" y="-228.45" font-family="Arial" font-size="9.00" fill="#c4c5bf"> </text>
<polyline fill="none" stroke="#c4c5bf" points="122.25,-222.5 221.5,-222.5"/>
<text xml:space="preserve" text-anchor="middle" x="171.88" y="-209.95" font-family="Arial" font-size="9.00" fill="#c4c5bf">UGConst: nb44f61f6</text>
<polyline fill="none" stroke="#c4c5bf" points="122.25,-204 221.5,-204"/>
<text xml:space="preserve" text-anchor="middle" x="171.62" y="-191.45" font-family="Arial" font-size="9.00" fill="#c4c5bf">out</text>
</g>
<!-- nb44f61f6&#45;&gt;n858dceac -->
<g id="edge2" class="edge">
<title>nb44f61f6:s&#45;&gt;n858dceac:n</title>
<path fill="none" stroke="#c4c5bf" d="M171.62,-185C171.62,-171.37 172.26,-166.45 172.45,-155.41"/>
<polygon fill="#c4c5bf" stroke="#c4c5bf" points="174.2,-155.53 172.49,-150.51 170.7,-155.5 174.2,-155.53"/>
</g>
<!-- n05973cd9 -->
<g id="node4" class="node">
<title>n05973cd9</title>
<polygon fill="none" stroke="#c4c5bf" points="240,-185.5 240,-241 343.75,-241 343.75,-185.5 240,-185.5"/>
<text xml:space="preserve" text-anchor="middle" x="291.75" y="-228.45" font-family="Arial" font-size="9.00" fill="#c4c5bf">in</text>
<polyline fill="none" stroke="#c4c5bf" points="240,-222.5 343.75,-222.5"/>
<text xml:space="preserve" text-anchor="middle" x="291.88" y="-209.95" font-family="Arial" font-size="9.00" fill="#c4c5bf">UGClock: n05973cd9</text>
<polyline fill="none" stroke="#c4c5bf" points="240,-204 343.75,-204"/>
<text xml:space="preserve" text-anchor="middle" x="291.88" y="-191.45" font-family="Arial" font-size="9.00" fill="#c4c5bf">out</text>
</g>
<!-- n05973cd9&#45;&gt;n64bff049 -->
<g id="edge3" class="edge">
<title>n05973cd9:s&#45;&gt;n64bff049:n</title>
<path fill="none" stroke="#c4c5bf" d="M291.88,-185C291.88,-171.37 291.6,-166.45 291.52,-155.41"/>
<polygon fill="#c4c5bf" stroke="#c4c5bf" points="293.27,-155.51 291.51,-150.51 289.77,-155.52 293.27,-155.51"/>
</g>
<!-- n0343f08f -->
<g id="node7" class="node">
<title>n0343f08f</title>
<polygon fill="none" stroke="#c4c5bf" points="184.88,-0.5 184.88,-56 278.88,-56 278.88,-0.5 184.88,-0.5"/>
<text xml:space="preserve" text-anchor="middle" x="208.25" y="-43.45" font-family="Arial" font-size="9.00" fill="#c4c5bf">in1</text>
<polyline fill="none" stroke="#c4c5bf" points="231.62,-37.5 231.62,-56"/>
<text xml:space="preserve" text-anchor="middle" x="255" y="-43.45" font-family="Arial" font-size="9.00" fill="#c4c5bf">in2</text>
<polyline fill="none" stroke="#c4c5bf" points="184.88,-37.5 278.88,-37.5"/>
<text xml:space="preserve" text-anchor="middle" x="231.88" y="-24.95" font-family="Arial" font-size="9.00" fill="#c4c5bf">UGSum: n0343f08f</text>
<polyline fill="none" stroke="#c4c5bf" points="184.88,-19 278.88,-19"/>
<text xml:space="preserve" text-anchor="middle" x="231.75" y="-6.45" font-family="Arial" font-size="9.00" fill="#c4c5bf">out</text>
</g>
<!-- n858dceac&#45;&gt;n0343f08f -->
<g id="edge5" class="edge">
<title>n858dceac:s&#45;&gt;n0343f08f:n</title>
<path fill="none" stroke="#c4c5bf" d="M148.75,-92.5C148.75,-64.01 199.32,-83.72 207.22,-62.76"/>
<polygon fill="#c4c5bf" stroke="#c4c5bf" points="208.92,-63.21 208,-57.99 205.46,-62.64 208.92,-63.21"/>
</g>
<!-- n64bff049&#45;&gt;n0343f08f -->
<g id="edge6" class="edge">
<title>n64bff049:s&#45;&gt;n0343f08f:n</title>
<path fill="none" stroke="#c4c5bf" d="M314.5,-92.5C314.5,-64.01 263.93,-83.72 256.03,-62.76"/>
<polygon fill="#c4c5bf" stroke="#c4c5bf" points="257.79,-62.64 255.25,-57.99 254.33,-63.21 257.79,-62.64"/>
</g>
</g>
</svg>
