<?xml version="1.0" encoding="UTF-8" standalone="no"?>
<!DOCTYPE svg PUBLIC "-//W3C//DTD SVG 1.1//EN"
 "http://www.w3.org/Graphics/SVG/1.1/DTD/svg11.dtd">
<!-- Generated by graphviz version 13.0.1 (20250615.1724)
 -->
<!-- Title: GenGraph Pages: 1 -->
<svg width="226pt" height="157pt"
 viewBox="0.00 0.00 226.00 157.00" xmlns="http://www.w3.org/2000/svg" xmlns:xlink="http://www.w3.org/1999/xlink">
<g id="graph0" class="graph" transform="scale(1 1) rotate(0) translate(4 153)">
<title>GenGraph</title>
<polygon fill="#12131e" stroke="none" points="-4,4 -4,-153 222.38,-153 222.38,4 -4,4"/>
<!-- nac94799c -->
<g id="node1" class="node">
<title>nac94799c</title>
<polygon fill="none" stroke="#c4c5bf" points="0,-93 0,-148.5 103,-148.5 103,-93 0,-93"/>
<text xml:space="preserve" text-anchor="middle" x="51.25" y="-135.95" font-family="Arial" font-size="9.00" fill="#c4c5bf">in</text>
<polyline fill="none" stroke="#c4c5bf" points="0,-130 103,-130"/>
<text xml:space="preserve" text-anchor="middle" x="51.5" y="-117.45" font-family="Arial" font-size="9.00" fill="#c4c5bf">UGClock: nac94799c</text>
<polyline fill="none" stroke="#c4c5bf" points="0,-111.5 103,-111.5"/>
<text xml:space="preserve" text-anchor="middle" x="51.38" y="-98.95" font-family="Arial" font-size="9.00" fill="#c4c5bf">out</text>
</g>
<!-- nf795206b -->
<g id="node3" class="node">
<title>nf795206b</title>
<polygon fill="none" stroke="#c4c5bf" points="62,-0.5 62,-56 159,-56 159,-0.5 62,-0.5"/>
<text xml:space="preserve" text-anchor="middle" x="85.88" y="-43.45" font-family="Arial" font-size="9.00" fill="#c4c5bf">in1</text>
<polyline fill="none" stroke="#c4c5bf" points="109.75,-37.5 109.75,-56"/>
<text xml:space="preserve" text-anchor="middle" x="134.12" y="-43.45" font-family="Arial" font-size="9.00" fill="#c4c5bf">in2</text>
<polyline fill="none" stroke="#c4c5bf" points="62,-37.5 159,-37.5"/>
<text xml:space="preserve" text-anchor="middle" x="110.5" y="-24.95" font-family="Arial" font-size="9.00" fill="#c4c5bf">UGSum: nf795206b</text>
<polyline fill="none" stroke="#c4c5bf" points="62,-19 159,-19"/>
<text xml:space="preserve" text-anchor="middle" x="110.38" y="-6.45" font-family="Arial" font-size="9.00" fill="#c4c5bf">out</text>
</g>
<!-- nac94799c&#45;&gt;nf795206b -->
<g id="edge1" class="edge">
<title>nac94799c:s&#45;&gt;nf795206b:n</title>
<path fill="none" stroke="#c4c5bf" d="M51.38,-92.5C51.38,-72.76 78.74,-77.21 84.73,-62.76"/>
<polygon fill="#c4c5bf" stroke="#c4c5bf" points="86.42,-63.22 85.6,-57.99 82.98,-62.59 86.42,-63.22"/>
</g>
<!-- ncd6257ff -->
<g id="node2" class="node">
<title>ncd6257ff</title>
<polygon fill="none" stroke="#c4c5bf" points="120.62,-93 120.62,-148.5 218.38,-148.5 218.38,-93 120.62,-93"/>
<text xml:space="preserve" text-anchor="middle" x="169.38" y="-135.95" font-family="Arial" font-size="9.00" fill="#c4c5bf">in</text>
<polyline fill="none" stroke="#c4c5bf" points="120.62,-130 218.38,-130"/>
<text xml:space="preserve" text-anchor="middle" x="169.5" y="-117.45" font-family="Arial" font-size="9.00" fill="#c4c5bf">UGClock: ncd6257ff</text>
<polyline fill="none" stroke="#c4c5bf" points="120.62,-111.5 218.38,-111.5"/>
<text xml:space="preserve" text-anchor="middle" x="169.5" y="-98.95" font-family="Arial" font-size="9.00" fill="#c4c5bf">out</text>
</g>
<!-- ncd6257ff&#45;&gt;nf795206b -->
<g id="edge2" class="edge">
<title>ncd6257ff:s&#45;&gt;nf795206b:n</title>
<path fill="none" stroke="#c4c5bf" d="M169.5,-92.5C169.5,-72.52 141.44,-77.37 135.3,-62.82"/>
<polygon fill="#c4c5bf" stroke="#c4c5bf" points="137.04,-62.58 134.4,-57.99 133.6,-63.22 137.04,-62.58"/>
</g>
</g>
</svg>
