<?xml version="1.0" encoding="UTF-8" standalone="no"?>
<!DOCTYPE svg PUBLIC "-//W3C//DTD SVG 1.1//EN"
 "http://www.w3.org/Graphics/SVG/1.1/DTD/svg11.dtd">
<!-- Generated by graphviz version 13.0.1 (20250615.1724)
 -->
<!-- Title: GenGraph Pages: 1 -->
<svg width="471pt" height="250pt"
 viewBox="0.00 0.00 471.00 250.00" xmlns="http://www.w3.org/2000/svg" xmlns:xlink="http://www.w3.org/1999/xlink">
<g id="graph0" class="graph" transform="scale(1 1) rotate(0) translate(4 245.5)">
<title>GenGraph</title>
<polygon fill="#12131e" stroke="none" points="-4,4 -4,-245.5 466.62,-245.5 466.62,4 -4,4"/>
<!-- n7da2ef51 -->
<g id="node1" class="node">
<title>n7da2ef51</title>
<polygon fill="none" stroke="#c4c5bf" points="360.38,-185.5 360.38,-241 462.62,-241 462.62,-185.5 360.38,-185.5"/>
<text xml:space="preserve" text-anchor="middle" x="411.5" y="-228.45" font-family="Arial" font-size="9.00" fill="#c4c5bf"> </text>
<polyline fill="none" stroke="#c4c5bf" points="360.38,-222.5 462.62,-222.5"/>
<text xml:space="preserve" text-anchor="middle" x="411.5" y="-209.95" font-family="Arial" font-size="9.00" fill="#c4c5bf">UGConst: n7da2ef51</text>
<polyline fill="none" stroke="#c4c5bf" points="360.38,-204 462.62,-204"/>
<text xml:space="preserve" text-anchor="middle" x="411.25" y="-191.45" font-family="Arial" font-size="9.00" fill="#c4c5bf">out</text>
</g>
<!-- n03dda029 -->
<g id="node5" class="node">
<title>n03dda029</title>
<polygon fill="none" stroke="#c4c5bf" points="265.25,-93 265.25,-148.5 363.75,-148.5 363.75,-93 265.25,-93"/>
<text xml:space="preserve" text-anchor="middle" x="289.62" y="-135.95" font-family="Arial" font-size="9.00" fill="#c4c5bf">in1</text>
<polyline fill="none" stroke="#c4c5bf" points="314,-130 314,-148.5"/>
<text xml:space="preserve" text-anchor="middle" x="338.88" y="-135.95" font-family="Arial" font-size="9.00" fill="#c4c5bf">in2</text>
<polyline fill="none" stroke="#c4c5bf" points="265.25,-130 363.75,-130"/>
<text xml:space="preserve" text-anchor="middle" x="314.5" y="-117.45" font-family="Arial" font-size="9.00" fill="#c4c5bf">UGMult: n03dda029</text>
<polyline fill="none" stroke="#c4c5bf" points="265.25,-111.5 363.75,-111.5"/>
<text xml:space="preserve" text-anchor="middle" x="314.12" y="-98.95" font-family="Arial" font-size="9.00" fill="#c4c5bf">out</text>
</g>
<!-- n7da2ef51&#45;&gt;n03dda029 -->
<g id="edge2" class="edge">
<title>n7da2ef51:s&#45;&gt;n03dda029:n</title>
<path fill="none" stroke="#c4c5bf" d="M411.25,-185C411.25,-151.46 348.17,-180.48 339.79,-155.25"/>
<polygon fill="#c4c5bf" stroke="#c4c5bf" points="341.55,-155.19 339.09,-150.5 338.09,-155.7 341.55,-155.19"/>
</g>
<!-- n8bc69b39 -->
<g id="node2" class="node">
<title>n8bc69b39</title>
<polygon fill="none" stroke="#c4c5bf" points="238.62,-185.5 238.62,-241 342.38,-241 342.38,-185.5 238.62,-185.5"/>
<text xml:space="preserve" text-anchor="middle" x="290.38" y="-228.45" font-family="Arial" font-size="9.00" fill="#c4c5bf">in</text>
<polyline fill="none" stroke="#c4c5bf" points="238.62,-222.5 342.38,-222.5"/>
<text xml:space="preserve" text-anchor="middle" x="290.5" y="-209.95" font-family="Arial" font-size="9.00" fill="#c4c5bf">UGClock: n8bc69b39</text>
<polyline fill="none" stroke="#c4c5bf" points="238.62,-204 342.38,-204"/>
<text xml:space="preserve" text-anchor="middle" x="290.5" y="-191.45" font-family="Arial" font-size="9.00" fill="#c4c5bf">out</text>
</g>
<!-- n8bc69b39&#45;&gt;n03dda029 -->
<g id="edge1" class="edge">
<title>n8bc69b39:s&#45;&gt;n03dda029:n</title>
<path fill="none" stroke="#c4c5bf" d="M290.5,-185C290.5,-171.37 289.87,-166.45 289.68,-155.41"/>
<polygon fill="#c4c5bf" stroke="#c4c5bf" points="291.43,-155.5 289.64,-150.51 287.93,-155.53 291.43,-155.5"/>
</g>
<!-- nac94799c -->
<g id="node3" class="node">
<title>nac94799c</title>
<polygon fill="none" stroke="#c4c5bf" points="0,-185.5 0,-241 103,-241 103,-185.5 0,-185.5"/>
<text xml:space="preserve" text-anchor="middle" x="51.25" y="-228.45" font-family="Arial" font-size="9.00" fill="#c4c5bf">in</text>
<polyline fill="none" stroke="#c4c5bf" points="0,-222.5 103,-222.5"/>
<text xml:space="preserve" text-anchor="middle" x="51.5" y="-209.95" font-family="Arial" font-size="9.00" fill="#c4c5bf">UGClock: nac94799c</text>
<polyline fill="none" stroke="#c4c5bf" points="0,-204 103,-204"/>
<text xml:space="preserve" text-anchor="middle" x="51.38" y="-191.45" font-family="Arial" font-size="9.00" fill="#c4c5bf">out</text>
</g>
<!-- n24ab7e8c -->
<g id="node6" class="node">
<title>n24ab7e8c</title>
<polygon fill="none" stroke="#c4c5bf" points="97.62,-93 97.62,-148.5 195.38,-148.5 195.38,-93 97.62,-93"/>
<text xml:space="preserve" text-anchor="middle" x="122" y="-135.95" font-family="Arial" font-size="9.00" fill="#c4c5bf">in1</text>
<polyline fill="none" stroke="#c4c5bf" points="146.38,-130 146.38,-148.5"/>
<text xml:space="preserve" text-anchor="middle" x="170.75" y="-135.95" font-family="Arial" font-size="9.00" fill="#c4c5bf">in2</text>
<polyline fill="none" stroke="#c4c5bf" points="97.62,-130 195.38,-130"/>
<text xml:space="preserve" text-anchor="middle" x="146.5" y="-117.45" font-family="Arial" font-size="9.00" fill="#c4c5bf">UGMult: n24ab7e8c</text>
<polyline fill="none" stroke="#c4c5bf" points="97.62,-111.5 195.38,-111.5"/>
<text xml:space="preserve" text-anchor="middle" x="146.5" y="-98.95" font-family="Arial" font-size="9.00" fill="#c4c5bf">out</text>
</g>
<!-- nac94799c&#45;&gt;n24ab7e8c -->
<g id="edge3" class="edge">
<title>nac94799c:s&#45;&gt;n24ab7e8c:n</title>
<path fill="none" stroke="#c4c5bf" d="M51.38,-185C51.38,-152.11 112.93,-179.96 121.11,-155.14"/>
<polygon fill="#c4c5bf" stroke="#c4c5bf" points="122.79,-155.7 121.78,-150.5 119.33,-155.19 122.79,-155.7"/>
</g>
<!-- nb44f61f6 -->
<g id="node4" class="node">
<title>nb44f61f6</title>
<polygon fill="none" stroke="#c4c5bf" points="120.88,-185.5 120.88,-241 220.12,-241 220.12,-185.5 120.88,-185.5"/>
<text xml:space="preserve" text-anchor="middle" x="170.5" y="-228.45" font-family="Arial" font-size="9.00" fill="#c4c5bf"> </text>
<polyline fill="none" stroke="#c4c5bf" points="120.88,-222.5 220.12,-222.5"/>
<text xml:space="preserve" text-anchor="middle" x="170.5" y="-209.95" font-family="Arial" font-size="9.00" fill="#c4c5bf">UGConst: nb44f61f6</text>
<polyline fill="none" stroke="#c4c5bf" points="120.88,-204 220.12,-204"/>
<text xml:space="preserve" text-anchor="middle" x="170.25" y="-191.45" font-family="Arial" font-size="9.00" fill="#c4c5bf">out</text>
</g>
<!-- nb44f61f6&#45;&gt;n24ab7e8c -->
<g id="edge4" class="edge">
<title>nb44f61f6:s&#45;&gt;n24ab7e8c:n</title>
<path fill="none" stroke="#c4c5bf" d="M170.25,-185C170.25,-171.37 170.61,-166.45 170.72,-155.41"/>
<polygon fill="#c4c5bf" stroke="#c4c5bf" points="172.47,-155.52 170.74,-150.51 168.97,-155.51 172.47,-155.52"/>
</g>
<!-- n235248ef -->
<g id="node7" class="node">
<title>n235248ef</title>
<polygon fill="none" stroke="#c4c5bf" points="182,-0.5 182,-56 279,-56 279,-0.5 182,-0.5"/>
<text xml:space="preserve" text-anchor="middle" x="205.88" y="-43.45" font-family="Arial" font-size="9.00" fill="#c4c5bf">in1</text>
<polyline fill="none" stroke="#c4c5bf" points="229.75,-37.5 229.75,-56"/>
<text xml:space="preserve" text-anchor="middle" x="254.12" y="-43.45" font-family="Arial" font-size="9.00" fill="#c4c5bf">in2</text>
<polyline fill="none" stroke="#c4c5bf" points="182,-37.5 279,-37.5"/>
<text xml:space="preserve" text-anchor="middle" x="230.5" y="-24.95" font-family="Arial" font-size="9.00" fill="#c4c5bf">UGSum: n235248ef</text>
<polyline fill="none" stroke="#c4c5bf" points="182,-19 279,-19"/>
<text xml:space="preserve" text-anchor="middle" x="230.38" y="-6.45" font-family="Arial" font-size="9.00" fill="#c4c5bf">out</text>
</g>
<!-- n03dda029&#45;&gt;n235248ef -->
<g id="edge6" class="edge">
<title>n03dda029:s&#45;&gt;n235248ef:n</title>
<path fill="none" stroke="#c4c5bf" d="M314.12,-92.5C314.12,-63.83 263.13,-83.85 255.17,-62.79"/>
<polygon fill="#c4c5bf" stroke="#c4c5bf" points="256.91,-62.64 254.37,-57.99 253.46,-63.21 256.91,-62.64"/>
</g>
<!-- n24ab7e8c&#45;&gt;n235248ef -->
<g id="edge5" class="edge">
<title>n24ab7e8c:s&#45;&gt;n235248ef:n</title>
<path fill="none" stroke="#c4c5bf" d="M146.5,-92.5C146.5,-64.05 196.96,-83.69 204.84,-62.75"/>
<polygon fill="#c4c5bf" stroke="#c4c5bf" points="206.54,-63.21 205.63,-57.99 203.09,-62.64 206.54,-63.21"/>
</g>
</g>
</svg>
