<?xml version="1.0" encoding="UTF-8" standalone="no"?>
<!DOCTYPE svg PUBLIC "-//W3C//DTD SVG 1.1//EN"
 "http://www.w3.org/Graphics/SVG/1.1/DTD/svg11.dtd">
<!-- Generated by graphviz version 2.43.0 (0)
 -->
<!-- Title: GenGraph Pages: 1 -->
<svg width="228pt" height="154pt"
 viewBox="0.00 0.00 228.00 154.00" xmlns="http://www.w3.org/2000/svg" xmlns:xlink="http://www.w3.org/1999/xlink">
<g id="graph0" class="graph" transform="scale(1 1) rotate(0) translate(4 150)">
<title>GenGraph</title>
<polygon fill="#12131e" stroke="transparent" points="-4,4 -4,-150 224,-150 224,4 -4,4"/>
<!-- nac94799c -->
<g id="node1" class="node">
<title>nac94799c</title>
<polygon fill="none" stroke="#c4c5bf" points="0,-91.5 0,-145.5 104,-145.5 104,-91.5 0,-91.5"/>
<text text-anchor="middle" x="52" y="-134.3" font-family="Arial" font-size="9.00" fill="#c4c5bf">in</text>
<polyline fill="none" stroke="#c4c5bf" points="0,-127.5 104,-127.5 "/>
<text text-anchor="middle" x="52" y="-116.3" font-family="Arial" font-size="9.00" fill="#c4c5bf">UGClock: nac94799c</text>
<polyline fill="none" stroke="#c4c5bf" points="0,-109.5 104,-109.5 "/>
<text text-anchor="middle" x="52" y="-98.3" font-family="Arial" font-size="9.00" fill="#c4c5bf">out</text>
</g>
<!-- nf795206b -->
<g id="node3" class="node">
<title>nf795206b</title>
<polygon fill="none" stroke="#c4c5bf" points="62,-0.5 62,-54.5 160,-54.5 160,-0.5 62,-0.5"/>
<text text-anchor="middle" x="86.5" y="-43.3" font-family="Arial" font-size="9.00" fill="#c4c5bf">in1</text>
<polyline fill="none" stroke="#c4c5bf" points="111,-36.5 111,-54.5 "/>
<text text-anchor="middle" x="135.5" y="-43.3" font-family="Arial" font-size="9.00" fill="#c4c5bf">in2</text>
<polyline fill="none" stroke="#c4c5bf" points="62,-36.5 160,-36.5 "/>
<text text-anchor="middle" x="111" y="-25.3" font-family="Arial" font-size="9.00" fill="#c4c5bf">UGSum: nf795206b</text>
<polyline fill="none" stroke="#c4c5bf" points="62,-18.5 160,-18.5 "/>
<text text-anchor="middle" x="111" y="-7.3" font-family="Arial" font-size="9.00" fill="#c4c5bf">out</text>
</g>
<!-- nac94799c&#45;&gt;nf795206b -->
<g id="edge1" class="edge">
<title>nac94799c:s&#45;&gt;nf795206b:n</title>
<path fill="none" stroke="#c4c5bf" d="M52,-91C52,-70.88 80.41,-75.85 85.29,-60.05"/>
<polygon fill="#c4c5bf" stroke="#c4c5bf" points="87.04,-60.2 86,-55 83.57,-59.71 87.04,-60.2"/>
</g>
<!-- ncd6257ff -->
<g id="node2" class="node">
<title>ncd6257ff</title>
<polygon fill="none" stroke="#c4c5bf" points="122,-91.5 122,-145.5 220,-145.5 220,-91.5 122,-91.5"/>
<text text-anchor="middle" x="171" y="-134.3" font-family="Arial" font-size="9.00" fill="#c4c5bf">in</text>
<polyline fill="none" stroke="#c4c5bf" points="122,-127.5 220,-127.5 "/>
<text text-anchor="middle" x="171" y="-116.3" font-family="Arial" font-size="9.00" fill="#c4c5bf">UGClock: ncd6257ff</text>
<polyline fill="none" stroke="#c4c5bf" points="122,-109.5 220,-109.5 "/>
<text text-anchor="middle" x="171" y="-98.3" font-family="Arial" font-size="9.00" fill="#c4c5bf">out</text>
</g>
<!-- ncd6257ff&#45;&gt;nf795206b -->
<g id="edge2" class="edge">
<title>ncd6257ff:s&#45;&gt;nf795206b:n</title>
<path fill="none" stroke="#c4c5bf" d="M171,-91C171,-70.6 141.76,-76.06 136.73,-60.11"/>
<polygon fill="#c4c5bf" stroke="#c4c5bf" points="138.44,-59.7 136,-55 134.98,-60.2 138.44,-59.7"/>
</g>
</g>
</svg>
