<?xml version="1.0" encoding="UTF-8" standalone="no"?>
<!DOCTYPE svg PUBLIC "-//W3C//DTD SVG 1.1//EN"
 "http://www.w3.org/Graphics/SVG/1.1/DTD/svg11.dtd">
<!-- Generated by graphviz version 13.0.1 (20250615.1724)
 -->
<!-- Title: GenGraph Pages: 1 -->
<svg width="228pt" height="157pt"
 viewBox="0.00 0.00 228.00 157.00" xmlns="http://www.w3.org/2000/svg" xmlns:xlink="http://www.w3.org/1999/xlink">
<g id="graph0" class="graph" transform="scale(1 1) rotate(0) translate(4 153)">
<title>GenGraph</title>
<polygon fill="#12131e" stroke="none" points="-4,4 -4,-153 224.12,-153 224.12,4 -4,4"/>
<!-- n4732f99f -->
<g id="node1" class="node">
<title>n4732f99f</title>
<polygon fill="none" stroke="#c4c5bf" points="121.62,-93 121.62,-148.5 220.12,-148.5 220.12,-93 121.62,-93"/>
<text xml:space="preserve" text-anchor="middle" x="170.88" y="-135.95" font-family="Arial" font-size="9.00" fill="#c4c5bf">in</text>
<polyline fill="none" stroke="#c4c5bf" points="121.62,-130 220.12,-130"/>
<text xml:space="preserve" text-anchor="middle" x="170.88" y="-117.45" font-family="Arial" font-size="9.00" fill="#c4c5bf">UGClock: n4732f99f</text>
<polyline fill="none" stroke="#c4c5bf" points="121.62,-111.5 220.12,-111.5"/>
<text xml:space="preserve" text-anchor="middle" x="170.5" y="-98.95" font-family="Arial" font-size="9.00" fill="#c4c5bf">out</text>
</g>
<!-- nd786c80b -->
<g id="node3" class="node">
<title>nd786c80b</title>
<polygon fill="none" stroke="#c4c5bf" points="62.25,-0.5 62.25,-56 161.5,-56 161.5,-0.5 62.25,-0.5"/>
<text xml:space="preserve" text-anchor="middle" x="86.62" y="-43.45" font-family="Arial" font-size="9.00" fill="#c4c5bf">in1</text>
<polyline fill="none" stroke="#c4c5bf" points="111,-37.5 111,-56"/>
<text xml:space="preserve" text-anchor="middle" x="135.88" y="-43.45" font-family="Arial" font-size="9.00" fill="#c4c5bf">in2</text>
<polyline fill="none" stroke="#c4c5bf" points="62.25,-37.5 161.5,-37.5"/>
<text xml:space="preserve" text-anchor="middle" x="111.88" y="-24.95" font-family="Arial" font-size="9.00" fill="#c4c5bf">UGSum: nd786c80b</text>
<polyline fill="none" stroke="#c4c5bf" points="62.25,-19 161.5,-19"/>
<text xml:space="preserve" text-anchor="middle" x="111.62" y="-6.45" font-family="Arial" font-size="9.00" fill="#c4c5bf">out</text>
</g>
<!-- n4732f99f&#45;&gt;nd786c80b -->
<g id="edge2" class="edge">
<title>n4732f99f:s&#45;&gt;nd786c80b:n</title>
<path fill="none" stroke="#c4c5bf" d="M170.5,-92.5C170.5,-72.73 143.04,-77.23 137.03,-62.77"/>
<polygon fill="#c4c5bf" stroke="#c4c5bf" points="138.77,-62.59 136.15,-57.99 135.33,-63.22 138.77,-62.59"/>
</g>
<!-- n26651b3c -->
<g id="node2" class="node">
<title>n26651b3c</title>
<polygon fill="none" stroke="#c4c5bf" points="0,-93 0,-148.5 103.75,-148.5 103.75,-93 0,-93"/>
<text xml:space="preserve" text-anchor="middle" x="51.75" y="-135.95" font-family="Arial" font-size="9.00" fill="#c4c5bf">in</text>
<polyline fill="none" stroke="#c4c5bf" points="0,-130 103.75,-130"/>
<text xml:space="preserve" text-anchor="middle" x="51.88" y="-117.45" font-family="Arial" font-size="9.00" fill="#c4c5bf">UGClock: n26651b3c</text>
<polyline fill="none" stroke="#c4c5bf" points="0,-111.5 103.75,-111.5"/>
<text xml:space="preserve" text-anchor="middle" x="51.88" y="-98.95" font-family="Arial" font-size="9.00" fill="#c4c5bf">out</text>
</g>
<!-- n26651b3c&#45;&gt;nd786c80b -->
<g id="edge1" class="edge">
<title>n26651b3c:s&#45;&gt;nd786c80b:n</title>
<path fill="none" stroke="#c4c5bf" d="M51.88,-92.5C51.88,-72.69 79.44,-77.25 85.47,-62.77"/>
<polygon fill="#c4c5bf" stroke="#c4c5bf" points="87.17,-63.22 86.35,-57.99 83.72,-62.59 87.17,-63.22"/>
</g>
</g>
</svg>
