<?xml version="1.0" encoding="UTF-8" standalone="no"?>
<!DOCTYPE svg PUBLIC "-//W3C//DTD SVG 1.1//EN"
 "http://www.w3.org/Graphics/SVG/1.1/DTD/svg11.dtd">
<!-- Generated by graphviz version 2.43.0 (0)
 -->
<!-- Title: GenGraph Pages: 1 -->
<svg width="474pt" height="245pt"
 viewBox="0.00 0.00 473.50 245.00" xmlns="http://www.w3.org/2000/svg" xmlns:xlink="http://www.w3.org/1999/xlink">
<g id="graph0" class="graph" transform="scale(1 1) rotate(0) translate(4 241)">
<title>GenGraph</title>
<polygon fill="#12131e" stroke="transparent" points="-4,4 -4,-241 469.5,-241 469.5,4 -4,4"/>
<!-- n7da2ef51 -->
<g id="node1" class="node">
<title>n7da2ef51</title>
<polygon fill="none" stroke="#c4c5bf" points="362.5,-182.5 362.5,-236.5 465.5,-236.5 465.5,-182.5 362.5,-182.5"/>
<text text-anchor="middle" x="414" y="-225.3" font-family="Arial" font-size="9.00" fill="#c4c5bf"> </text>
<polyline fill="none" stroke="#c4c5bf" points="362.5,-218.5 465.5,-218.5 "/>
<text text-anchor="middle" x="414" y="-207.3" font-family="Arial" font-size="9.00" fill="#c4c5bf">UGConst: n7da2ef51</text>
<polyline fill="none" stroke="#c4c5bf" points="362.5,-200.5 465.5,-200.5 "/>
<text text-anchor="middle" x="414" y="-189.3" font-family="Arial" font-size="9.00" fill="#c4c5bf">out</text>
</g>
<!-- n03dda029 -->
<g id="node5" class="node">
<title>n03dda029</title>
<polygon fill="none" stroke="#c4c5bf" points="267.5,-91.5 267.5,-145.5 366.5,-145.5 366.5,-91.5 267.5,-91.5"/>
<text text-anchor="middle" x="292" y="-134.3" font-family="Arial" font-size="9.00" fill="#c4c5bf">in1</text>
<polyline fill="none" stroke="#c4c5bf" points="316.5,-127.5 316.5,-145.5 "/>
<text text-anchor="middle" x="341.5" y="-134.3" font-family="Arial" font-size="9.00" fill="#c4c5bf">in2</text>
<polyline fill="none" stroke="#c4c5bf" points="267.5,-127.5 366.5,-127.5 "/>
<text text-anchor="middle" x="317" y="-116.3" font-family="Arial" font-size="9.00" fill="#c4c5bf">UGMult: n03dda029</text>
<polyline fill="none" stroke="#c4c5bf" points="267.5,-109.5 366.5,-109.5 "/>
<text text-anchor="middle" x="317" y="-98.3" font-family="Arial" font-size="9.00" fill="#c4c5bf">out</text>
</g>
<!-- n7da2ef51&#45;&gt;n03dda029 -->
<g id="edge2" class="edge">
<title>n7da2ef51:s&#45;&gt;n03dda029:n</title>
<path fill="none" stroke="#c4c5bf" d="M414,-182C414,-148.18 349.66,-178.1 342.62,-151.25"/>
<polygon fill="#c4c5bf" stroke="#c4c5bf" points="344.33,-150.76 342,-146 340.85,-151.17 344.33,-150.76"/>
</g>
<!-- n8bc69b39 -->
<g id="node2" class="node">
<title>n8bc69b39</title>
<polygon fill="none" stroke="#c4c5bf" points="240,-182.5 240,-236.5 344,-236.5 344,-182.5 240,-182.5"/>
<text text-anchor="middle" x="292" y="-225.3" font-family="Arial" font-size="9.00" fill="#c4c5bf">in</text>
<polyline fill="none" stroke="#c4c5bf" points="240,-218.5 344,-218.5 "/>
<text text-anchor="middle" x="292" y="-207.3" font-family="Arial" font-size="9.00" fill="#c4c5bf">UGClock: n8bc69b39</text>
<polyline fill="none" stroke="#c4c5bf" points="240,-200.5 344,-200.5 "/>
<text text-anchor="middle" x="292" y="-189.3" font-family="Arial" font-size="9.00" fill="#c4c5bf">out</text>
</g>
<!-- n8bc69b39&#45;&gt;n03dda029 -->
<g id="edge1" class="edge">
<title>n8bc69b39:s&#45;&gt;n03dda029:n</title>
<path fill="none" stroke="#c4c5bf" d="M292,-182C292,-167.88 292,-163.1 292,-151.17"/>
<polygon fill="#c4c5bf" stroke="#c4c5bf" points="293.75,-151 292,-146 290.25,-151 293.75,-151"/>
</g>
<!-- nac94799c -->
<g id="node3" class="node">
<title>nac94799c</title>
<polygon fill="none" stroke="#c4c5bf" points="0,-182.5 0,-236.5 104,-236.5 104,-182.5 0,-182.5"/>
<text text-anchor="middle" x="52" y="-225.3" font-family="Arial" font-size="9.00" fill="#c4c5bf">in</text>
<polyline fill="none" stroke="#c4c5bf" points="0,-218.5 104,-218.5 "/>
<text text-anchor="middle" x="52" y="-207.3" font-family="Arial" font-size="9.00" fill="#c4c5bf">UGClock: nac94799c</text>
<polyline fill="none" stroke="#c4c5bf" points="0,-200.5 104,-200.5 "/>
<text text-anchor="middle" x="52" y="-189.3" font-family="Arial" font-size="9.00" fill="#c4c5bf">out</text>
</g>
<!-- n24ab7e8c -->
<g id="node6" class="node">
<title>n24ab7e8c</title>
<polygon fill="none" stroke="#c4c5bf" points="98,-91.5 98,-145.5 196,-145.5 196,-91.5 98,-91.5"/>
<text text-anchor="middle" x="122.5" y="-134.3" font-family="Arial" font-size="9.00" fill="#c4c5bf">in1</text>
<polyline fill="none" stroke="#c4c5bf" points="147,-127.5 147,-145.5 "/>
<text text-anchor="middle" x="171.5" y="-134.3" font-family="Arial" font-size="9.00" fill="#c4c5bf">in2</text>
<polyline fill="none" stroke="#c4c5bf" points="98,-127.5 196,-127.5 "/>
<text text-anchor="middle" x="147" y="-116.3" font-family="Arial" font-size="9.00" fill="#c4c5bf">UGMult: n24ab7e8c</text>
<polyline fill="none" stroke="#c4c5bf" points="98,-109.5 196,-109.5 "/>
<text text-anchor="middle" x="147" y="-98.3" font-family="Arial" font-size="9.00" fill="#c4c5bf">out</text>
</g>
<!-- nac94799c&#45;&gt;n24ab7e8c -->
<g id="edge3" class="edge">
<title>nac94799c:s&#45;&gt;n24ab7e8c:n</title>
<path fill="none" stroke="#c4c5bf" d="M52,-182C52,-148.93 114.55,-177.48 121.39,-151.14"/>
<polygon fill="#c4c5bf" stroke="#c4c5bf" points="123.15,-151.17 122,-146 119.68,-150.76 123.15,-151.17"/>
</g>
<!-- nb44f61f6 -->
<g id="node4" class="node">
<title>nb44f61f6</title>
<polygon fill="none" stroke="#c4c5bf" points="122,-182.5 122,-236.5 222,-236.5 222,-182.5 122,-182.5"/>
<text text-anchor="middle" x="172" y="-225.3" font-family="Arial" font-size="9.00" fill="#c4c5bf"> </text>
<polyline fill="none" stroke="#c4c5bf" points="122,-218.5 222,-218.5 "/>
<text text-anchor="middle" x="172" y="-207.3" font-family="Arial" font-size="9.00" fill="#c4c5bf">UGConst: nb44f61f6</text>
<polyline fill="none" stroke="#c4c5bf" points="122,-200.5 222,-200.5 "/>
<text text-anchor="middle" x="172" y="-189.3" font-family="Arial" font-size="9.00" fill="#c4c5bf">out</text>
</g>
<!-- nb44f61f6&#45;&gt;n24ab7e8c -->
<g id="edge4" class="edge">
<title>nb44f61f6:s&#45;&gt;n24ab7e8c:n</title>
<path fill="none" stroke="#c4c5bf" d="M172,-182C172,-167.88 172,-163.1 172,-151.17"/>
<polygon fill="#c4c5bf" stroke="#c4c5bf" points="173.75,-151 172,-146 170.25,-151 173.75,-151"/>
</g>
<!-- n235248ef -->
<g id="node7" class="node">
<title>n235248ef</title>
<polygon fill="none" stroke="#c4c5bf" points="183,-0.5 183,-54.5 281,-54.5 281,-0.5 183,-0.5"/>
<text text-anchor="middle" x="207.5" y="-43.3" font-family="Arial" font-size="9.00" fill="#c4c5bf">in1</text>
<polyline fill="none" stroke="#c4c5bf" points="232,-36.5 232,-54.5 "/>
<text text-anchor="middle" x="256.5" y="-43.3" font-family="Arial" font-size="9.00" fill="#c4c5bf">in2</text>
<polyline fill="none" stroke="#c4c5bf" points="183,-36.5 281,-36.5 "/>
<text text-anchor="middle" x="232" y="-25.3" font-family="Arial" font-size="9.00" fill="#c4c5bf">UGSum: n235248ef</text>
<polyline fill="none" stroke="#c4c5bf" points="183,-18.5 281,-18.5 "/>
<text text-anchor="middle" x="232" y="-7.3" font-family="Arial" font-size="9.00" fill="#c4c5bf">out</text>
</g>
<!-- n03dda029&#45;&gt;n235248ef -->
<g id="edge6" class="edge">
<title>n03dda029:s&#45;&gt;n235248ef:n</title>
<path fill="none" stroke="#c4c5bf" d="M317,-91C317,-61.85 264.27,-83.05 257.67,-60.19"/>
<polygon fill="#c4c5bf" stroke="#c4c5bf" points="259.38,-59.73 257,-55 255.91,-60.18 259.38,-59.73"/>
</g>
<!-- n24ab7e8c&#45;&gt;n235248ef -->
<g id="edge5" class="edge">
<title>n24ab7e8c:s&#45;&gt;n235248ef:n</title>
<path fill="none" stroke="#c4c5bf" d="M147,-91C147,-61.85 199.73,-83.05 206.33,-60.19"/>
<polygon fill="#c4c5bf" stroke="#c4c5bf" points="208.09,-60.18 207,-55 204.62,-59.73 208.09,-60.18"/>
</g>
</g>
</svg>
