<?xml version="1.0" encoding="UTF-8" standalone="no"?>
<!DOCTYPE svg PUBLIC "-//W3C//DTD SVG 1.1//EN"
 "http://www.w3.org/Graphics/SVG/1.1/DTD/svg11.dtd">
<!-- Generated by graphviz version 2.43.0 (0)
 -->
<!-- Title: GenGraph Pages: 1 -->
<svg width="432pt" height="245pt"
 viewBox="0.00 0.00 432.00 245.00" xmlns="http://www.w3.org/2000/svg" xmlns:xlink="http://www.w3.org/1999/xlink">
<g id="graph0" class="graph" transform="scale(1 1) rotate(0) translate(4 241)">
<title>GenGraph</title>
<polygon fill="#12131e" stroke="transparent" points="-4,4 -4,-241 428,-241 428,4 -4,4"/>
<!-- trigger -->
<g id="node1" class="node">
<title>trigger</title>
<polygon fill="none" stroke="#c4c5bf" points="45,-182.5 45,-236.5 129,-236.5 129,-182.5 45,-182.5"/>
<text text-anchor="middle" x="87" y="-225.3" font-family="Arial" font-size="9.00" fill="#c4c5bf">in</text>
<polyline fill="none" stroke="#c4c5bf" points="45,-218.5 129,-218.5 "/>
<text text-anchor="middle" x="87" y="-207.3" font-family="Arial" font-size="9.00" fill="#c4c5bf">UGClock: trigger</text>
<polyline fill="none" stroke="#c4c5bf" points="45,-200.5 129,-200.5 "/>
<text text-anchor="middle" x="87" y="-189.3" font-family="Arial" font-size="9.00" fill="#c4c5bf">out</text>
</g>
<!-- n684700ae -->
<g id="node2" class="node">
<title>n684700ae</title>
<polygon fill="none" stroke="#c4c5bf" points="108.5,-91.5 108.5,-145.5 215.5,-145.5 215.5,-91.5 108.5,-91.5"/>
<text text-anchor="middle" x="137.5" y="-134.3" font-family="Arial" font-size="9.00" fill="#c4c5bf">trigger</text>
<polyline fill="none" stroke="#c4c5bf" points="166.5,-127.5 166.5,-145.5 "/>
<text text-anchor="middle" x="191" y="-134.3" font-family="Arial" font-size="9.00" fill="#c4c5bf">step</text>
<polyline fill="none" stroke="#c4c5bf" points="108.5,-127.5 215.5,-127.5 "/>
<text text-anchor="middle" x="162" y="-116.3" font-family="Arial" font-size="9.00" fill="#c4c5bf">UGSelect: n684700ae</text>
<polyline fill="none" stroke="#c4c5bf" points="108.5,-109.5 215.5,-109.5 "/>
<text text-anchor="middle" x="162" y="-98.3" font-family="Arial" font-size="9.00" fill="#c4c5bf">out</text>
</g>
<!-- trigger&#45;&gt;n684700ae -->
<g id="edge1" class="edge">
<title>trigger:s&#45;&gt;n684700ae:n</title>
<path fill="none" stroke="#c4c5bf" d="M87,-182C87,-156.54 130.22,-170.97 136.29,-151.12"/>
<polygon fill="#c4c5bf" stroke="#c4c5bf" points="138.05,-151.19 137,-146 134.58,-150.71 138.05,-151.19"/>
</g>
<!-- sd -->
<g id="node3" class="node">
<title>sd</title>
<polygon fill="none" stroke="#c4c5bf" points="0,-0.5 0,-54.5 424,-54.5 424,-0.5 0,-0.5"/>
<text text-anchor="middle" x="17.5" y="-43.3" font-family="Arial" font-size="9.00" fill="#c4c5bf">gate</text>
<polyline fill="none" stroke="#c4c5bf" points="35,-36.5 35,-54.5 "/>
<text text-anchor="middle" x="52.5" y="-43.3" font-family="Arial" font-size="9.00" fill="#c4c5bf">tune</text>
<polyline fill="none" stroke="#c4c5bf" points="70,-36.5 70,-54.5 "/>
<text text-anchor="middle" x="87.5" y="-43.3" font-family="Arial" font-size="9.00" fill="#c4c5bf">tone</text>
<polyline fill="none" stroke="#c4c5bf" points="105,-36.5 105,-54.5 "/>
<text text-anchor="middle" x="128.5" y="-43.3" font-family="Arial" font-size="9.00" fill="#c4c5bf">snappy</text>
<polyline fill="none" stroke="#c4c5bf" points="152,-36.5 152,-54.5 "/>
<text text-anchor="middle" x="184.5" y="-43.3" font-family="Arial" font-size="9.00" fill="#c4c5bf">tone_decay</text>
<polyline fill="none" stroke="#c4c5bf" points="217,-36.5 217,-54.5 "/>
<text text-anchor="middle" x="255.5" y="-43.3" font-family="Arial" font-size="9.00" fill="#c4c5bf">snappy_decay</text>
<polyline fill="none" stroke="#c4c5bf" points="294,-36.5 294,-54.5 "/>
<text text-anchor="middle" x="325" y="-43.3" font-family="Arial" font-size="9.00" fill="#c4c5bf">noise_filter</text>
<polyline fill="none" stroke="#c4c5bf" points="356,-36.5 356,-54.5 "/>
<text text-anchor="middle" x="390" y="-43.3" font-family="Arial" font-size="9.00" fill="#c4c5bf">pitch_sweep</text>
<polyline fill="none" stroke="#c4c5bf" points="0,-36.5 424,-36.5 "/>
<text text-anchor="middle" x="212" y="-25.3" font-family="Arial" font-size="9.00" fill="#c4c5bf">UGSnareDrum: sd</text>
<polyline fill="none" stroke="#c4c5bf" points="0,-18.5 424,-18.5 "/>
<text text-anchor="middle" x="212" y="-7.3" font-family="Arial" font-size="9.00" fill="#c4c5bf">out</text>
</g>
<!-- trigger&#45;&gt;sd -->
<g id="edge2" class="edge">
<title>trigger:s&#45;&gt;sd:n</title>
<path fill="none" stroke="#c4c5bf" d="M87,-182C87,-119.31 20.78,-119.4 17.15,-60.14"/>
<polygon fill="#c4c5bf" stroke="#c4c5bf" points="18.9,-59.95 17,-55 15.4,-60.05 18.9,-59.95"/>
</g>
<!-- n684700ae&#45;&gt;sd -->
<g id="edge3" class="edge">
<title>n684700ae:s&#45;&gt;sd:n</title>
<path fill="none" stroke="#c4c5bf" d="M162,-91C162,-74.15 179.76,-73.65 183.37,-60.13"/>
<polygon fill="#c4c5bf" stroke="#c4c5bf" points="185.12,-60.18 184,-55 181.65,-59.75 185.12,-60.18"/>
</g>
</g>
</svg>
