<?xml version="1.0" encoding="UTF-8" standalone="no"?>
<!DOCTYPE svg PUBLIC "-//W3C//DTD SVG 1.1//EN"
 "http://www.w3.org/Graphics/SVG/1.1/DTD/svg11.dtd">
<!-- Generated by graphviz version 13.0.1 (20250615.1724)
 -->
<!-- Title: GenGraph Pages: 1 -->
<svg width="425pt" height="250pt"
 viewBox="0.00 0.00 425.00 250.00" xmlns="http://www.w3.org/2000/svg" xmlns:xlink="http://www.w3.org/1999/xlink">
<g id="graph0" class="graph" transform="scale(1 1) rotate(0) translate(4 245.5)">
<title>GenGraph</title>
<polygon fill="#12131e" stroke="none" points="-4,4 -4,-245.5 420.75,-245.5 420.75,4 -4,4"/>
<!-- trigger -->
<g id="node1" class="node">
<title>trigger</title>
<polygon fill="none" stroke="#c4c5bf" points="24.62,-185.5 24.62,-241 108.12,-241 108.12,-185.5 24.62,-185.5"/>
<text xml:space="preserve" text-anchor="middle" x="66.38" y="-228.45" font-family="Arial" font-size="9.00" fill="#c4c5bf">in</text>
<polyline fill="none" stroke="#c4c5bf" points="24.62,-222.5 108.12,-222.5"/>
<text xml:space="preserve" text-anchor="middle" x="66.38" y="-209.95" font-family="Arial" font-size="9.00" fill="#c4c5bf">UGClock: trigger</text>
<polyline fill="none" stroke="#c4c5bf" points="24.62,-204 108.12,-204"/>
<text xml:space="preserve" text-anchor="middle" x="66" y="-191.45" font-family="Arial" font-size="9.00" fill="#c4c5bf">out</text>
</g>
<!-- n684700ae -->
<g id="node2" class="node">
<title>n684700ae</title>
<polygon fill="none" stroke="#c4c5bf" points="86,-93 86,-148.5 192.75,-148.5 192.75,-93 86,-93"/>
<text xml:space="preserve" text-anchor="middle" x="114.62" y="-135.95" font-family="Arial" font-size="9.00" fill="#c4c5bf">trigger</text>
<polyline fill="none" stroke="#c4c5bf" points="143.25,-130 143.25,-148.5"/>
<text xml:space="preserve" text-anchor="middle" x="167.88" y="-135.95" font-family="Arial" font-size="9.00" fill="#c4c5bf">step</text>
<polyline fill="none" stroke="#c4c5bf" points="86,-130 192.75,-130"/>
<text xml:space="preserve" text-anchor="middle" x="139.38" y="-117.45" font-family="Arial" font-size="9.00" fill="#c4c5bf">UGSelect: n684700ae</text>
<polyline fill="none" stroke="#c4c5bf" points="86,-111.5 192.75,-111.5"/>
<text xml:space="preserve" text-anchor="middle" x="139.38" y="-98.95" font-family="Arial" font-size="9.00" fill="#c4c5bf">out</text>
</g>
<!-- trigger&#45;&gt;n684700ae -->
<g id="edge1" class="edge">
<title>trigger:s&#45;&gt;n684700ae:n</title>
<path fill="none" stroke="#c4c5bf" d="M66,-185C66,-160.42 106.63,-173.16 113.61,-155"/>
<polygon fill="#c4c5bf" stroke="#c4c5bf" points="115.26,-155.71 114.37,-150.49 111.81,-155.13 115.26,-155.71"/>
</g>
<!-- sd -->
<g id="node3" class="node">
<title>sd</title>
<polygon fill="none" stroke="#c4c5bf" points="0,-0.5 0,-56 416.75,-56 416.75,-0.5 0,-0.5"/>
<text xml:space="preserve" text-anchor="middle" x="17" y="-43.45" font-family="Arial" font-size="9.00" fill="#c4c5bf">gate</text>
<polyline fill="none" stroke="#c4c5bf" points="34,-37.5 34,-56"/>
<text xml:space="preserve" text-anchor="middle" x="51" y="-43.45" font-family="Arial" font-size="9.00" fill="#c4c5bf">tune</text>
<polyline fill="none" stroke="#c4c5bf" points="68,-37.5 68,-56"/>
<text xml:space="preserve" text-anchor="middle" x="85" y="-43.45" font-family="Arial" font-size="9.00" fill="#c4c5bf">tone</text>
<polyline fill="none" stroke="#c4c5bf" points="102,-37.5 102,-56"/>
<text xml:space="preserve" text-anchor="middle" x="125" y="-43.45" font-family="Arial" font-size="9.00" fill="#c4c5bf">snappy</text>
<polyline fill="none" stroke="#c4c5bf" points="148,-37.5 148,-56"/>
<text xml:space="preserve" text-anchor="middle" x="180" y="-43.45" font-family="Arial" font-size="9.00" fill="#c4c5bf">tone_decay</text>
<polyline fill="none" stroke="#c4c5bf" points="212,-37.5 212,-56"/>
<text xml:space="preserve" text-anchor="middle" x="250" y="-43.45" font-family="Arial" font-size="9.00" fill="#c4c5bf">snappy_decay</text>
<polyline fill="none" stroke="#c4c5bf" points="288,-37.5 288,-56"/>
<text xml:space="preserve" text-anchor="middle" x="318.5" y="-43.45" font-family="Arial" font-size="9.00" fill="#c4c5bf">noise_filter</text>
<polyline fill="none" stroke="#c4c5bf" points="349,-37.5 349,-56"/>
<text xml:space="preserve" text-anchor="middle" x="382.88" y="-43.45" font-family="Arial" font-size="9.00" fill="#c4c5bf">pitch_sweep</text>
<polyline fill="none" stroke="#c4c5bf" points="0,-37.5 416.75,-37.5"/>
<text xml:space="preserve" text-anchor="middle" x="208.38" y="-24.95" font-family="Arial" font-size="9.00" fill="#c4c5bf">UGSnareDrum: sd</text>
<polyline fill="none" stroke="#c4c5bf" points="0,-19 416.75,-19"/>
<text xml:space="preserve" text-anchor="middle" x="208.38" y="-6.45" font-family="Arial" font-size="9.00" fill="#c4c5bf">out</text>
</g>
<!-- trigger&#45;&gt;sd -->
<g id="edge2" class="edge">
<title>trigger:s&#45;&gt;sd:n</title>
<path fill="none" stroke="#c4c5bf" d="M66,-185C66,-126.03 20.38,-118.13 17.18,-62.75"/>
<polygon fill="#c4c5bf" stroke="#c4c5bf" points="18.93,-62.96 17.04,-58.01 15.44,-63.06 18.93,-62.96"/>
</g>
<!-- n684700ae&#45;&gt;sd -->
<g id="edge3" class="edge">
<title>n684700ae:s&#45;&gt;sd:n</title>
<path fill="none" stroke="#c4c5bf" d="M139.38,-92.5C139.38,-70.83 172.17,-78.51 178.83,-62.8"/>
<polygon fill="#c4c5bf" stroke="#c4c5bf" points="180.53,-63.22 179.72,-57.99 177.09,-62.58 180.53,-63.22"/>
</g>
</g>
</svg>
