<?xml version="1.0" encoding="UTF-8" standalone="no"?>
<!DOCTYPE svg PUBLIC "-//W3C//DTD SVG 1.1//EN"
 "http://www.w3.org/Graphics/SVG/1.1/DTD/svg11.dtd">
<!-- Generated by graphviz version 13.0.1 (20250615.1724)
 -->
<!-- Title: GenGraph Pages: 1 -->
<svg width="1066pt" height="250pt"
 viewBox="0.00 0.00 1066.00 250.00" xmlns="http://www.w3.org/2000/svg" xmlns:xlink="http://www.w3.org/1999/xlink">
<g id="graph0" class="graph" transform="scale(1 1) rotate(0) translate(4 245.5)">
<title>GenGraph</title>
<polygon fill="#12131e" stroke="none" points="-4,4 -4,-245.5 1061.5,-245.5 1061.5,4 -4,4"/>
<!-- n36a844cf -->
<g id="node1" class="node">
<title>n36a844cf</title>
<polygon fill="none" stroke="#c4c5bf" points="122.25,-185.5 122.25,-241 251.5,-241 251.5,-185.5 122.25,-185.5"/>
<text xml:space="preserve" text-anchor="middle" x="138.12" y="-228.45" font-family="Arial" font-size="9.00" fill="#c4c5bf">rate</text>
<polyline fill="none" stroke="#c4c5bf" points="154,-222.5 154,-241"/>
<text xml:space="preserve" text-anchor="middle" x="170.62" y="-228.45" font-family="Arial" font-size="9.00" fill="#c4c5bf">duty</text>
<polyline fill="none" stroke="#c4c5bf" points="187.25,-222.5 187.25,-241"/>
<text xml:space="preserve" text-anchor="middle" x="202.75" y="-228.45" font-family="Arial" font-size="9.00" fill="#c4c5bf">min</text>
<polyline fill="none" stroke="#c4c5bf" points="218.25,-222.5 218.25,-241"/>
<text xml:space="preserve" text-anchor="middle" x="234.88" y="-228.45" font-family="Arial" font-size="9.00" fill="#c4c5bf">max</text>
<polyline fill="none" stroke="#c4c5bf" points="122.25,-222.5 251.5,-222.5"/>
<text xml:space="preserve" text-anchor="middle" x="186.88" y="-209.95" font-family="Arial" font-size="9.00" fill="#c4c5bf">UGLfo: n36a844cf</text>
<polyline fill="none" stroke="#c4c5bf" points="122.25,-204 251.5,-204"/>
<text xml:space="preserve" text-anchor="middle" x="186.62" y="-191.45" font-family="Arial" font-size="9.00" fill="#c4c5bf">wave</text>
</g>
<!-- mix -->
<g id="node9" class="node">
<title>mix</title>
<polygon fill="none" stroke="#c4c5bf" points="333.88,-93 333.88,-148.5 759.88,-148.5 759.88,-93 333.88,-93"/>
<text xml:space="preserve" text-anchor="middle" x="348.25" y="-135.95" font-family="Arial" font-size="9.00" fill="#c4c5bf">in1</text>
<polyline fill="none" stroke="#c4c5bf" points="362.62,-130 362.62,-148.5"/>
<text xml:space="preserve" text-anchor="middle" x="381.12" y="-135.95" font-family="Arial" font-size="9.00" fill="#c4c5bf">pan1</text>
<polyline fill="none" stroke="#c4c5bf" points="399.62,-130 399.62,-148.5"/>
<text xml:space="preserve" text-anchor="middle" x="420" y="-135.95" font-family="Arial" font-size="9.00" fill="#c4c5bf">level1</text>
<polyline fill="none" stroke="#c4c5bf" points="440.38,-130 440.38,-148.5"/>
<text xml:space="preserve" text-anchor="middle" x="454.75" y="-135.95" font-family="Arial" font-size="9.00" fill="#c4c5bf">in2</text>
<polyline fill="none" stroke="#c4c5bf" points="469.12,-130 469.12,-148.5"/>
<text xml:space="preserve" text-anchor="middle" x="487.62" y="-135.95" font-family="Arial" font-size="9.00" fill="#c4c5bf">pan2</text>
<polyline fill="none" stroke="#c4c5bf" points="506.12,-130 506.12,-148.5"/>
<text xml:space="preserve" text-anchor="middle" x="526.5" y="-135.95" font-family="Arial" font-size="9.00" fill="#c4c5bf">level2</text>
<polyline fill="none" stroke="#c4c5bf" points="546.88,-130 546.88,-148.5"/>
<text xml:space="preserve" text-anchor="middle" x="561.25" y="-135.95" font-family="Arial" font-size="9.00" fill="#c4c5bf">in3</text>
<polyline fill="none" stroke="#c4c5bf" points="575.62,-130 575.62,-148.5"/>
<text xml:space="preserve" text-anchor="middle" x="594.12" y="-135.95" font-family="Arial" font-size="9.00" fill="#c4c5bf">pan3</text>
<polyline fill="none" stroke="#c4c5bf" points="612.62,-130 612.62,-148.5"/>
<text xml:space="preserve" text-anchor="middle" x="633" y="-135.95" font-family="Arial" font-size="9.00" fill="#c4c5bf">level3</text>
<polyline fill="none" stroke="#c4c5bf" points="653.38,-130 653.38,-148.5"/>
<text xml:space="preserve" text-anchor="middle" x="667.75" y="-135.95" font-family="Arial" font-size="9.00" fill="#c4c5bf">in4</text>
<polyline fill="none" stroke="#c4c5bf" points="682.12,-130 682.12,-148.5"/>
<text xml:space="preserve" text-anchor="middle" x="700.62" y="-135.95" font-family="Arial" font-size="9.00" fill="#c4c5bf">pan4</text>
<polyline fill="none" stroke="#c4c5bf" points="719.12,-130 719.12,-148.5"/>
<text xml:space="preserve" text-anchor="middle" x="739.5" y="-135.95" font-family="Arial" font-size="9.00" fill="#c4c5bf">level4</text>
<polyline fill="none" stroke="#c4c5bf" points="333.88,-130 759.88,-130"/>
<text xml:space="preserve" text-anchor="middle" x="546.88" y="-117.45" font-family="Arial" font-size="9.00" fill="#c4c5bf">UGMixLinear: mix</text>
<polyline fill="none" stroke="#c4c5bf" points="333.88,-111.5 759.88,-111.5"/>
<text xml:space="preserve" text-anchor="middle" x="440.38" y="-98.95" font-family="Arial" font-size="9.00" fill="#c4c5bf">out1</text>
<polyline fill="none" stroke="#c4c5bf" points="546.88,-93 546.88,-111.5"/>
<text xml:space="preserve" text-anchor="middle" x="653.38" y="-98.95" font-family="Arial" font-size="9.00" fill="#c4c5bf">out2</text>
</g>
<!-- n36a844cf&#45;&gt;mix -->
<g id="edge5" class="edge">
<title>n36a844cf:s&#45;&gt;mix:n</title>
<path fill="none" stroke="#c4c5bf" d="M186.62,-185C186.62,-82.31 410.08,-246.61 419.68,-155.38"/>
<polygon fill="#c4c5bf" stroke="#c4c5bf" points="421.42,-155.59 419.92,-150.51 417.93,-155.42 421.42,-155.59"/>
</g>
<!-- n80d75118 -->
<g id="node2" class="node">
<title>n80d75118</title>
<polygon fill="none" stroke="#c4c5bf" points="540,-185.5 540,-241 643.75,-241 643.75,-185.5 540,-185.5"/>
<text xml:space="preserve" text-anchor="middle" x="591.75" y="-228.45" font-family="Arial" font-size="9.00" fill="#c4c5bf">in</text>
<polyline fill="none" stroke="#c4c5bf" points="540,-222.5 643.75,-222.5"/>
<text xml:space="preserve" text-anchor="middle" x="591.88" y="-209.95" font-family="Arial" font-size="9.00" fill="#c4c5bf">UGClock: n80d75118</text>
<polyline fill="none" stroke="#c4c5bf" points="540,-204 643.75,-204"/>
<text xml:space="preserve" text-anchor="middle" x="591.88" y="-191.45" font-family="Arial" font-size="9.00" fill="#c4c5bf">out</text>
</g>
<!-- n80d75118&#45;&gt;mix -->
<g id="edge3" class="edge">
<title>n80d75118:s&#45;&gt;mix:n</title>
<path fill="none" stroke="#c4c5bf" d="M591.88,-185C591.88,-166.46 568.01,-168.97 562.41,-155.36"/>
<polygon fill="#c4c5bf" stroke="#c4c5bf" points="564.14,-155.09 561.52,-150.49 560.7,-155.72 564.14,-155.09"/>
</g>
<!-- n8bc69b39 -->
<g id="node3" class="node">
<title>n8bc69b39</title>
<polygon fill="none" stroke="#c4c5bf" points="270,-185.5 270,-241 373.75,-241 373.75,-185.5 270,-185.5"/>
<text xml:space="preserve" text-anchor="middle" x="321.75" y="-228.45" font-family="Arial" font-size="9.00" fill="#c4c5bf">in</text>
<polyline fill="none" stroke="#c4c5bf" points="270,-222.5 373.75,-222.5"/>
<text xml:space="preserve" text-anchor="middle" x="321.88" y="-209.95" font-family="Arial" font-size="9.00" fill="#c4c5bf">UGClock: n8bc69b39</text>
<polyline fill="none" stroke="#c4c5bf" points="270,-204 373.75,-204"/>
<text xml:space="preserve" text-anchor="middle" x="321.88" y="-191.45" font-family="Arial" font-size="9.00" fill="#c4c5bf">out</text>
</g>
<!-- n8bc69b39&#45;&gt;mix -->
<g id="edge2" class="edge">
<title>n8bc69b39:s&#45;&gt;mix:n</title>
<path fill="none" stroke="#c4c5bf" d="M321.88,-185C321.88,-126.09 445.07,-203.98 454.21,-155.22"/>
<polygon fill="#c4c5bf" stroke="#c4c5bf" points="455.93,-155.64 454.62,-150.51 452.45,-155.34 455.93,-155.64"/>
</g>
<!-- n92a2ece0 -->
<g id="node4" class="node">
<title>n92a2ece0</title>
<polygon fill="none" stroke="#c4c5bf" points="392.25,-185.5 392.25,-241 521.5,-241 521.5,-185.5 392.25,-185.5"/>
<text xml:space="preserve" text-anchor="middle" x="408.12" y="-228.45" font-family="Arial" font-size="9.00" fill="#c4c5bf">rate</text>
<polyline fill="none" stroke="#c4c5bf" points="424,-222.5 424,-241"/>
<text xml:space="preserve" text-anchor="middle" x="440.62" y="-228.45" font-family="Arial" font-size="9.00" fill="#c4c5bf">duty</text>
<polyline fill="none" stroke="#c4c5bf" points="457.25,-222.5 457.25,-241"/>
<text xml:space="preserve" text-anchor="middle" x="472.75" y="-228.45" font-family="Arial" font-size="9.00" fill="#c4c5bf">min</text>
<polyline fill="none" stroke="#c4c5bf" points="488.25,-222.5 488.25,-241"/>
<text xml:space="preserve" text-anchor="middle" x="504.88" y="-228.45" font-family="Arial" font-size="9.00" fill="#c4c5bf">max</text>
<polyline fill="none" stroke="#c4c5bf" points="392.25,-222.5 521.5,-222.5"/>
<text xml:space="preserve" text-anchor="middle" x="456.88" y="-209.95" font-family="Arial" font-size="9.00" fill="#c4c5bf">UGLfo: n92a2ece0</text>
<polyline fill="none" stroke="#c4c5bf" points="392.25,-204 521.5,-204"/>
<text xml:space="preserve" text-anchor="middle" x="456.62" y="-191.45" font-family="Arial" font-size="9.00" fill="#c4c5bf">wave</text>
</g>
<!-- n92a2ece0&#45;&gt;mix -->
<g id="edge6" class="edge">
<title>n92a2ece0:s&#45;&gt;mix:n</title>
<path fill="none" stroke="#c4c5bf" d="M456.62,-185C456.62,-166.36 480.79,-169.03 486.45,-155.38"/>
<polygon fill="#c4c5bf" stroke="#c4c5bf" points="488.16,-155.72 487.35,-150.49 484.72,-155.09 488.16,-155.72"/>
</g>
<!-- n9d923701 -->
<g id="node5" class="node">
<title>n9d923701</title>
<polygon fill="none" stroke="#c4c5bf" points="662.25,-185.5 662.25,-241 791.5,-241 791.5,-185.5 662.25,-185.5"/>
<text xml:space="preserve" text-anchor="middle" x="678.12" y="-228.45" font-family="Arial" font-size="9.00" fill="#c4c5bf">rate</text>
<polyline fill="none" stroke="#c4c5bf" points="694,-222.5 694,-241"/>
<text xml:space="preserve" text-anchor="middle" x="710.62" y="-228.45" font-family="Arial" font-size="9.00" fill="#c4c5bf">duty</text>
<polyline fill="none" stroke="#c4c5bf" points="727.25,-222.5 727.25,-241"/>
<text xml:space="preserve" text-anchor="middle" x="742.75" y="-228.45" font-family="Arial" font-size="9.00" fill="#c4c5bf">min</text>
<polyline fill="none" stroke="#c4c5bf" points="758.25,-222.5 758.25,-241"/>
<text xml:space="preserve" text-anchor="middle" x="774.88" y="-228.45" font-family="Arial" font-size="9.00" fill="#c4c5bf">max</text>
<polyline fill="none" stroke="#c4c5bf" points="662.25,-222.5 791.5,-222.5"/>
<text xml:space="preserve" text-anchor="middle" x="726.88" y="-209.95" font-family="Arial" font-size="9.00" fill="#c4c5bf">UGLfo: n9d923701</text>
<polyline fill="none" stroke="#c4c5bf" points="662.25,-204 791.5,-204"/>
<text xml:space="preserve" text-anchor="middle" x="726.62" y="-191.45" font-family="Arial" font-size="9.00" fill="#c4c5bf">wave</text>
</g>
<!-- n9d923701&#45;&gt;mix -->
<g id="edge7" class="edge">
<title>n9d923701:s&#45;&gt;mix:n</title>
<path fill="none" stroke="#c4c5bf" d="M726.62,-185C726.62,-142.68 642.27,-188.43 633.7,-155.06"/>
<polygon fill="#c4c5bf" stroke="#c4c5bf" points="635.49,-155.27 633.17,-150.5 632.01,-155.67 635.49,-155.27"/>
</g>
<!-- na1a52f7b -->
<g id="node6" class="node">
<title>na1a52f7b</title>
<polygon fill="none" stroke="#c4c5bf" points="809.12,-185.5 809.12,-241 910.62,-241 910.62,-185.5 809.12,-185.5"/>
<text xml:space="preserve" text-anchor="middle" x="859.88" y="-228.45" font-family="Arial" font-size="9.00" fill="#c4c5bf">in</text>
<polyline fill="none" stroke="#c4c5bf" points="809.12,-222.5 910.62,-222.5"/>
<text xml:space="preserve" text-anchor="middle" x="859.88" y="-209.95" font-family="Arial" font-size="9.00" fill="#c4c5bf">UGClock: na1a52f7b</text>
<polyline fill="none" stroke="#c4c5bf" points="809.12,-204 910.62,-204"/>
<text xml:space="preserve" text-anchor="middle" x="859.5" y="-191.45" font-family="Arial" font-size="9.00" fill="#c4c5bf">out</text>
</g>
<!-- na1a52f7b&#45;&gt;mix -->
<g id="edge4" class="edge">
<title>na1a52f7b:s&#45;&gt;mix:n</title>
<path fill="none" stroke="#c4c5bf" d="M859.5,-185C859.5,-100.49 677.36,-228.88 668.11,-155.18"/>
<polygon fill="#c4c5bf" stroke="#c4c5bf" points="669.88,-155.4 667.84,-150.51 666.39,-155.61 669.88,-155.4"/>
</g>
<!-- na8818122 -->
<g id="node7" class="node">
<title>na8818122</title>
<polygon fill="none" stroke="#c4c5bf" points="928.25,-185.5 928.25,-241 1057.5,-241 1057.5,-185.5 928.25,-185.5"/>
<text xml:space="preserve" text-anchor="middle" x="944.12" y="-228.45" font-family="Arial" font-size="9.00" fill="#c4c5bf">rate</text>
<polyline fill="none" stroke="#c4c5bf" points="960,-222.5 960,-241"/>
<text xml:space="preserve" text-anchor="middle" x="976.62" y="-228.45" font-family="Arial" font-size="9.00" fill="#c4c5bf">duty</text>
<polyline fill="none" stroke="#c4c5bf" points="993.25,-222.5 993.25,-241"/>
<text xml:space="preserve" text-anchor="middle" x="1008.75" y="-228.45" font-family="Arial" font-size="9.00" fill="#c4c5bf">min</text>
<polyline fill="none" stroke="#c4c5bf" points="1024.25,-222.5 1024.25,-241"/>
<text xml:space="preserve" text-anchor="middle" x="1040.88" y="-228.45" font-family="Arial" font-size="9.00" fill="#c4c5bf">max</text>
<polyline fill="none" stroke="#c4c5bf" points="928.25,-222.5 1057.5,-222.5"/>
<text xml:space="preserve" text-anchor="middle" x="992.88" y="-209.95" font-family="Arial" font-size="9.00" fill="#c4c5bf">UGLfo: na8818122</text>
<polyline fill="none" stroke="#c4c5bf" points="928.25,-204 1057.5,-204"/>
<text xml:space="preserve" text-anchor="middle" x="992.62" y="-191.45" font-family="Arial" font-size="9.00" fill="#c4c5bf">wave</text>
</g>
<!-- na8818122&#45;&gt;mix -->
<g id="edge8" class="edge">
<title>na8818122:s&#45;&gt;mix:n</title>
<path fill="none" stroke="#c4c5bf" d="M992.62,-185C992.62,-121.92 720.8,-207.92 701.68,-155.32"/>
<polygon fill="#c4c5bf" stroke="#c4c5bf" points="703.43,-155.14 700.87,-150.49 699.97,-155.71 703.43,-155.14"/>
</g>
<!-- nc2730dde -->
<g id="node8" class="node">
<title>nc2730dde</title>
<polygon fill="none" stroke="#c4c5bf" points="0,-185.5 0,-241 103.75,-241 103.75,-185.5 0,-185.5"/>
<text xml:space="preserve" text-anchor="middle" x="51.75" y="-228.45" font-family="Arial" font-size="9.00" fill="#c4c5bf">in</text>
<polyline fill="none" stroke="#c4c5bf" points="0,-222.5 103.75,-222.5"/>
<text xml:space="preserve" text-anchor="middle" x="51.88" y="-209.95" font-family="Arial" font-size="9.00" fill="#c4c5bf">UGClock: nc2730dde</text>
<polyline fill="none" stroke="#c4c5bf" points="0,-204 103.75,-204"/>
<text xml:space="preserve" text-anchor="middle" x="51.88" y="-191.45" font-family="Arial" font-size="9.00" fill="#c4c5bf">out</text>
</g>
<!-- nc2730dde&#45;&gt;mix -->
<g id="edge1" class="edge">
<title>nc2730dde:s&#45;&gt;mix:n</title>
<path fill="none" stroke="#c4c5bf" d="M51.88,-185C51.88,-120.99 327.78,-208.75 347.18,-155.41"/>
<polygon fill="#c4c5bf" stroke="#c4c5bf" points="348.9,-155.71 348,-150.49 345.45,-155.13 348.9,-155.71"/>
</g>
<!-- mlevel -->
<g id="node10" class="node">
<title>mlevel</title>
<polygon fill="none" stroke="#c4c5bf" points="517.38,-0.5 517.38,-56 610.38,-56 610.38,-0.5 517.38,-0.5"/>
<text xml:space="preserve" text-anchor="middle" x="531.75" y="-43.45" font-family="Arial" font-size="9.00" fill="#c4c5bf">in1</text>
<polyline fill="none" stroke="#c4c5bf" points="546.12,-37.5 546.12,-56"/>
<text xml:space="preserve" text-anchor="middle" x="560.5" y="-43.45" font-family="Arial" font-size="9.00" fill="#c4c5bf">in2</text>
<polyline fill="none" stroke="#c4c5bf" points="574.88,-37.5 574.88,-56"/>
<text xml:space="preserve" text-anchor="middle" x="592.62" y="-43.45" font-family="Arial" font-size="9.00" fill="#c4c5bf">level</text>
<polyline fill="none" stroke="#c4c5bf" points="517.38,-37.5 610.38,-37.5"/>
<text xml:space="preserve" text-anchor="middle" x="563.88" y="-24.95" font-family="Arial" font-size="9.00" fill="#c4c5bf">UGFade: mlevel</text>
<polyline fill="none" stroke="#c4c5bf" points="517.38,-19 610.38,-19"/>
<text xml:space="preserve" text-anchor="middle" x="540.38" y="-6.45" font-family="Arial" font-size="9.00" fill="#c4c5bf">out1</text>
<polyline fill="none" stroke="#c4c5bf" points="563.38,-0.5 563.38,-19"/>
<text xml:space="preserve" text-anchor="middle" x="586.88" y="-6.45" font-family="Arial" font-size="9.00" fill="#c4c5bf">out2</text>
</g>
<!-- mix&#45;&gt;mlevel -->
<g id="edge9" class="edge">
<title>mix:s&#45;&gt;mlevel:n</title>
<path fill="none" stroke="#c4c5bf" d="M440.38,-92.5C440.38,-51.24 522.03,-94.82 530.96,-62.84"/>
<polygon fill="#c4c5bf" stroke="#c4c5bf" points="532.68,-63.18 531.56,-58 529.21,-62.75 532.68,-63.18"/>
</g>
<!-- mix&#45;&gt;mlevel -->
<g id="edge10" class="edge">
<title>mix:s&#45;&gt;mlevel:n</title>
<path fill="none" stroke="#c4c5bf" d="M653.38,-92.5C653.38,-50.65 570.38,-95.31 561.3,-62.93"/>
<polygon fill="#c4c5bf" stroke="#c4c5bf" points="563.04,-62.75 560.69,-58 559.57,-63.18 563.04,-62.75"/>
</g>
</g>
</svg>
