<?xml version="1.0" encoding="UTF-8" standalone="no"?>
<!DOCTYPE svg PUBLIC "-//W3C//DTD SVG 1.1//EN"
 "http://www.w3.org/Graphics/SVG/1.1/DTD/svg11.dtd">
<!-- Generated by graphviz version 2.43.0 (0)
 -->
<!-- Title: GenGraph Pages: 1 -->
<svg width="1076pt" height="245pt"
 viewBox="0.00 0.00 1076.00 245.00" xmlns="http://www.w3.org/2000/svg" xmlns:xlink="http://www.w3.org/1999/xlink">
<g id="graph0" class="graph" transform="scale(1 1) rotate(0) translate(4 241)">
<title>GenGraph</title>
<polygon fill="#12131e" stroke="transparent" points="-4,4 -4,-241 1072,-241 1072,4 -4,4"/>
<!-- n36a844cf -->
<g id="node1" class="node">
<title>n36a844cf</title>
<polygon fill="none" stroke="#c4c5bf" points="122,-182.5 122,-236.5 254,-236.5 254,-182.5 122,-182.5"/>
<text text-anchor="middle" x="138" y="-225.3" font-family="Arial" font-size="9.00" fill="#c4c5bf">rate</text>
<polyline fill="none" stroke="#c4c5bf" points="154,-218.5 154,-236.5 "/>
<text text-anchor="middle" x="171" y="-225.3" font-family="Arial" font-size="9.00" fill="#c4c5bf">duty</text>
<polyline fill="none" stroke="#c4c5bf" points="188,-218.5 188,-236.5 "/>
<text text-anchor="middle" x="204" y="-225.3" font-family="Arial" font-size="9.00" fill="#c4c5bf">min</text>
<polyline fill="none" stroke="#c4c5bf" points="220,-218.5 220,-236.5 "/>
<text text-anchor="middle" x="237" y="-225.3" font-family="Arial" font-size="9.00" fill="#c4c5bf">max</text>
<polyline fill="none" stroke="#c4c5bf" points="122,-218.5 254,-218.5 "/>
<text text-anchor="middle" x="188" y="-207.3" font-family="Arial" font-size="9.00" fill="#c4c5bf">UGLfo: n36a844cf</text>
<polyline fill="none" stroke="#c4c5bf" points="122,-200.5 254,-200.5 "/>
<text text-anchor="middle" x="188" y="-189.3" font-family="Arial" font-size="9.00" fill="#c4c5bf">wave</text>
</g>
<!-- mix -->
<g id="node9" class="node">
<title>mix</title>
<polygon fill="none" stroke="#c4c5bf" points="334,-91.5 334,-145.5 766,-145.5 766,-91.5 334,-91.5"/>
<text text-anchor="middle" x="348.5" y="-134.3" font-family="Arial" font-size="9.00" fill="#c4c5bf">in1</text>
<polyline fill="none" stroke="#c4c5bf" points="363,-127.5 363,-145.5 "/>
<text text-anchor="middle" x="382" y="-134.3" font-family="Arial" font-size="9.00" fill="#c4c5bf">pan1</text>
<polyline fill="none" stroke="#c4c5bf" points="401,-127.5 401,-145.5 "/>
<text text-anchor="middle" x="421.5" y="-134.3" font-family="Arial" font-size="9.00" fill="#c4c5bf">level1</text>
<polyline fill="none" stroke="#c4c5bf" points="442,-127.5 442,-145.5 "/>
<text text-anchor="middle" x="456.5" y="-134.3" font-family="Arial" font-size="9.00" fill="#c4c5bf">in2</text>
<polyline fill="none" stroke="#c4c5bf" points="471,-127.5 471,-145.5 "/>
<text text-anchor="middle" x="490" y="-134.3" font-family="Arial" font-size="9.00" fill="#c4c5bf">pan2</text>
<polyline fill="none" stroke="#c4c5bf" points="509,-127.5 509,-145.5 "/>
<text text-anchor="middle" x="529.5" y="-134.3" font-family="Arial" font-size="9.00" fill="#c4c5bf">level2</text>
<polyline fill="none" stroke="#c4c5bf" points="550,-127.5 550,-145.5 "/>
<text text-anchor="middle" x="564.5" y="-134.3" font-family="Arial" font-size="9.00" fill="#c4c5bf">in3</text>
<polyline fill="none" stroke="#c4c5bf" points="579,-127.5 579,-145.5 "/>
<text text-anchor="middle" x="598" y="-134.3" font-family="Arial" font-size="9.00" fill="#c4c5bf">pan3</text>
<polyline fill="none" stroke="#c4c5bf" points="617,-127.5 617,-145.5 "/>
<text text-anchor="middle" x="637.5" y="-134.3" font-family="Arial" font-size="9.00" fill="#c4c5bf">level3</text>
<polyline fill="none" stroke="#c4c5bf" points="658,-127.5 658,-145.5 "/>
<text text-anchor="middle" x="672.5" y="-134.3" font-family="Arial" font-size="9.00" fill="#c4c5bf">in4</text>
<polyline fill="none" stroke="#c4c5bf" points="687,-127.5 687,-145.5 "/>
<text text-anchor="middle" x="706" y="-134.3" font-family="Arial" font-size="9.00" fill="#c4c5bf">pan4</text>
<polyline fill="none" stroke="#c4c5bf" points="725,-127.5 725,-145.5 "/>
<text text-anchor="middle" x="745.5" y="-134.3" font-family="Arial" font-size="9.00" fill="#c4c5bf">level4</text>
<polyline fill="none" stroke="#c4c5bf" points="334,-127.5 766,-127.5 "/>
<text text-anchor="middle" x="550" y="-116.3" font-family="Arial" font-size="9.00" fill="#c4c5bf">UGMixLinear: mix</text>
<polyline fill="none" stroke="#c4c5bf" points="334,-109.5 766,-109.5 "/>
<text text-anchor="middle" x="442" y="-98.3" font-family="Arial" font-size="9.00" fill="#c4c5bf">out1</text>
<polyline fill="none" stroke="#c4c5bf" points="550,-91.5 550,-109.5 "/>
<text text-anchor="middle" x="658" y="-98.3" font-family="Arial" font-size="9.00" fill="#c4c5bf">out2</text>
</g>
<!-- n36a844cf&#45;&gt;mix -->
<g id="edge5" class="edge">
<title>n36a844cf:s&#45;&gt;mix:n</title>
<path fill="none" stroke="#c4c5bf" d="M188,-182C188,-79.06 412.88,-244.77 420.79,-151.27"/>
<polygon fill="#c4c5bf" stroke="#c4c5bf" points="422.55,-151.07 421,-146 419.05,-150.93 422.55,-151.07"/>
</g>
<!-- n80d75118 -->
<g id="node2" class="node">
<title>n80d75118</title>
<polygon fill="none" stroke="#c4c5bf" points="544,-182.5 544,-236.5 648,-236.5 648,-182.5 544,-182.5"/>
<text text-anchor="middle" x="596" y="-225.3" font-family="Arial" font-size="9.00" fill="#c4c5bf">in</text>
<polyline fill="none" stroke="#c4c5bf" points="544,-218.5 648,-218.5 "/>
<text text-anchor="middle" x="596" y="-207.3" font-family="Arial" font-size="9.00" fill="#c4c5bf">UGClock: n80d75118</text>
<polyline fill="none" stroke="#c4c5bf" points="544,-200.5 648,-200.5 "/>
<text text-anchor="middle" x="596" y="-189.3" font-family="Arial" font-size="9.00" fill="#c4c5bf">out</text>
</g>
<!-- n80d75118&#45;&gt;mix -->
<g id="edge3" class="edge">
<title>n80d75118:s&#45;&gt;mix:n</title>
<path fill="none" stroke="#c4c5bf" d="M596,-182C596,-162.86 570.54,-166.19 565.77,-151.26"/>
<polygon fill="#c4c5bf" stroke="#c4c5bf" points="567.45,-150.7 565,-146 563.99,-151.2 567.45,-150.7"/>
</g>
<!-- n8bc69b39 -->
<g id="node3" class="node">
<title>n8bc69b39</title>
<polygon fill="none" stroke="#c4c5bf" points="272,-182.5 272,-236.5 376,-236.5 376,-182.5 272,-182.5"/>
<text text-anchor="middle" x="324" y="-225.3" font-family="Arial" font-size="9.00" fill="#c4c5bf">in</text>
<polyline fill="none" stroke="#c4c5bf" points="272,-218.5 376,-218.5 "/>
<text text-anchor="middle" x="324" y="-207.3" font-family="Arial" font-size="9.00" fill="#c4c5bf">UGClock: n8bc69b39</text>
<polyline fill="none" stroke="#c4c5bf" points="272,-200.5 376,-200.5 "/>
<text text-anchor="middle" x="324" y="-189.3" font-family="Arial" font-size="9.00" fill="#c4c5bf">out</text>
</g>
<!-- n8bc69b39&#45;&gt;mix -->
<g id="edge2" class="edge">
<title>n8bc69b39:s&#45;&gt;mix:n</title>
<path fill="none" stroke="#c4c5bf" d="M324,-182C324,-123.09 447.88,-201.6 455.62,-151.28"/>
<polygon fill="#c4c5bf" stroke="#c4c5bf" points="457.39,-151.11 456,-146 453.9,-150.86 457.39,-151.11"/>
</g>
<!-- n92a2ece0 -->
<g id="node4" class="node">
<title>n92a2ece0</title>
<polygon fill="none" stroke="#c4c5bf" points="394,-182.5 394,-236.5 526,-236.5 526,-182.5 394,-182.5"/>
<text text-anchor="middle" x="410" y="-225.3" font-family="Arial" font-size="9.00" fill="#c4c5bf">rate</text>
<polyline fill="none" stroke="#c4c5bf" points="426,-218.5 426,-236.5 "/>
<text text-anchor="middle" x="443" y="-225.3" font-family="Arial" font-size="9.00" fill="#c4c5bf">duty</text>
<polyline fill="none" stroke="#c4c5bf" points="460,-218.5 460,-236.5 "/>
<text text-anchor="middle" x="476" y="-225.3" font-family="Arial" font-size="9.00" fill="#c4c5bf">min</text>
<polyline fill="none" stroke="#c4c5bf" points="492,-218.5 492,-236.5 "/>
<text text-anchor="middle" x="509" y="-225.3" font-family="Arial" font-size="9.00" fill="#c4c5bf">max</text>
<polyline fill="none" stroke="#c4c5bf" points="394,-218.5 526,-218.5 "/>
<text text-anchor="middle" x="460" y="-207.3" font-family="Arial" font-size="9.00" fill="#c4c5bf">UGLfo: n92a2ece0</text>
<polyline fill="none" stroke="#c4c5bf" points="394,-200.5 526,-200.5 "/>
<text text-anchor="middle" x="460" y="-189.3" font-family="Arial" font-size="9.00" fill="#c4c5bf">wave</text>
</g>
<!-- n92a2ece0&#45;&gt;mix -->
<g id="edge6" class="edge">
<title>n92a2ece0:s&#45;&gt;mix:n</title>
<path fill="none" stroke="#c4c5bf" d="M460,-182C460,-163.13 484.64,-166 489.26,-151.2"/>
<polygon fill="#c4c5bf" stroke="#c4c5bf" points="491.03,-151.2 490,-146 487.56,-150.7 491.03,-151.2"/>
</g>
<!-- n9d923701 -->
<g id="node5" class="node">
<title>n9d923701</title>
<polygon fill="none" stroke="#c4c5bf" points="666,-182.5 666,-236.5 798,-236.5 798,-182.5 666,-182.5"/>
<text text-anchor="middle" x="682" y="-225.3" font-family="Arial" font-size="9.00" fill="#c4c5bf">rate</text>
<polyline fill="none" stroke="#c4c5bf" points="698,-218.5 698,-236.5 "/>
<text text-anchor="middle" x="715" y="-225.3" font-family="Arial" font-size="9.00" fill="#c4c5bf">duty</text>
<polyline fill="none" stroke="#c4c5bf" points="732,-218.5 732,-236.5 "/>
<text text-anchor="middle" x="748" y="-225.3" font-family="Arial" font-size="9.00" fill="#c4c5bf">min</text>
<polyline fill="none" stroke="#c4c5bf" points="764,-218.5 764,-236.5 "/>
<text text-anchor="middle" x="781" y="-225.3" font-family="Arial" font-size="9.00" fill="#c4c5bf">max</text>
<polyline fill="none" stroke="#c4c5bf" points="666,-218.5 798,-218.5 "/>
<text text-anchor="middle" x="732" y="-207.3" font-family="Arial" font-size="9.00" fill="#c4c5bf">UGLfo: n9d923701</text>
<polyline fill="none" stroke="#c4c5bf" points="666,-200.5 798,-200.5 "/>
<text text-anchor="middle" x="732" y="-189.3" font-family="Arial" font-size="9.00" fill="#c4c5bf">wave</text>
</g>
<!-- n9d923701&#45;&gt;mix -->
<g id="edge7" class="edge">
<title>n9d923701:s&#45;&gt;mix:n</title>
<path fill="none" stroke="#c4c5bf" d="M732,-182C732,-139.19 645.9,-186.32 638.51,-151.24"/>
<polygon fill="#c4c5bf" stroke="#c4c5bf" points="640.22,-150.81 638,-146 636.74,-151.15 640.22,-150.81"/>
</g>
<!-- na1a52f7b -->
<g id="node6" class="node">
<title>na1a52f7b</title>
<polygon fill="none" stroke="#c4c5bf" points="816,-182.5 816,-236.5 918,-236.5 918,-182.5 816,-182.5"/>
<text text-anchor="middle" x="867" y="-225.3" font-family="Arial" font-size="9.00" fill="#c4c5bf">in</text>
<polyline fill="none" stroke="#c4c5bf" points="816,-218.5 918,-218.5 "/>
<text text-anchor="middle" x="867" y="-207.3" font-family="Arial" font-size="9.00" fill="#c4c5bf">UGClock: na1a52f7b</text>
<polyline fill="none" stroke="#c4c5bf" points="816,-200.5 918,-200.5 "/>
<text text-anchor="middle" x="867" y="-189.3" font-family="Arial" font-size="9.00" fill="#c4c5bf">out</text>
</g>
<!-- na1a52f7b&#45;&gt;mix -->
<g id="edge4" class="edge">
<title>na1a52f7b:s&#45;&gt;mix:n</title>
<path fill="none" stroke="#c4c5bf" d="M867,-182C867,-96.19 681.25,-227.81 673.26,-151.34"/>
<polygon fill="#c4c5bf" stroke="#c4c5bf" points="675,-150.91 673,-146 671.5,-151.08 675,-150.91"/>
</g>
<!-- na8818122 -->
<g id="node7" class="node">
<title>na8818122</title>
<polygon fill="none" stroke="#c4c5bf" points="936,-182.5 936,-236.5 1068,-236.5 1068,-182.5 936,-182.5"/>
<text text-anchor="middle" x="952" y="-225.3" font-family="Arial" font-size="9.00" fill="#c4c5bf">rate</text>
<polyline fill="none" stroke="#c4c5bf" points="968,-218.5 968,-236.5 "/>
<text text-anchor="middle" x="985" y="-225.3" font-family="Arial" font-size="9.00" fill="#c4c5bf">duty</text>
<polyline fill="none" stroke="#c4c5bf" points="1002,-218.5 1002,-236.5 "/>
<text text-anchor="middle" x="1018" y="-225.3" font-family="Arial" font-size="9.00" fill="#c4c5bf">min</text>
<polyline fill="none" stroke="#c4c5bf" points="1034,-218.5 1034,-236.5 "/>
<text text-anchor="middle" x="1051" y="-225.3" font-family="Arial" font-size="9.00" fill="#c4c5bf">max</text>
<polyline fill="none" stroke="#c4c5bf" points="936,-218.5 1068,-218.5 "/>
<text text-anchor="middle" x="1002" y="-207.3" font-family="Arial" font-size="9.00" fill="#c4c5bf">UGLfo: na8818122</text>
<polyline fill="none" stroke="#c4c5bf" points="936,-200.5 1068,-200.5 "/>
<text text-anchor="middle" x="1002" y="-189.3" font-family="Arial" font-size="9.00" fill="#c4c5bf">wave</text>
</g>
<!-- na8818122&#45;&gt;mix -->
<g id="edge8" class="edge">
<title>na8818122:s&#45;&gt;mix:n</title>
<path fill="none" stroke="#c4c5bf" d="M1002,-182C1002,-117.55 721.97,-207.11 706.65,-151.08"/>
<polygon fill="#c4c5bf" stroke="#c4c5bf" points="708.37,-150.74 706,-146 704.9,-151.18 708.37,-150.74"/>
</g>
<!-- nc2730dde -->
<g id="node8" class="node">
<title>nc2730dde</title>
<polygon fill="none" stroke="#c4c5bf" points="0,-182.5 0,-236.5 104,-236.5 104,-182.5 0,-182.5"/>
<text text-anchor="middle" x="52" y="-225.3" font-family="Arial" font-size="9.00" fill="#c4c5bf">in</text>
<polyline fill="none" stroke="#c4c5bf" points="0,-218.5 104,-218.5 "/>
<text text-anchor="middle" x="52" y="-207.3" font-family="Arial" font-size="9.00" fill="#c4c5bf">UGClock: nc2730dde</text>
<polyline fill="none" stroke="#c4c5bf" points="0,-200.5 104,-200.5 "/>
<text text-anchor="middle" x="52" y="-189.3" font-family="Arial" font-size="9.00" fill="#c4c5bf">out</text>
</g>
<!-- nc2730dde&#45;&gt;mix -->
<g id="edge1" class="edge">
<title>nc2730dde:s&#45;&gt;mix:n</title>
<path fill="none" stroke="#c4c5bf" d="M52,-182C52,-117.55 332.03,-207.11 347.35,-151.08"/>
<polygon fill="#c4c5bf" stroke="#c4c5bf" points="349.1,-151.18 348,-146 345.63,-150.74 349.1,-151.18"/>
</g>
<!-- mlevel -->
<g id="node10" class="node">
<title>mlevel</title>
<polygon fill="none" stroke="#c4c5bf" points="521,-0.5 521,-54.5 615,-54.5 615,-0.5 521,-0.5"/>
<text text-anchor="middle" x="535.5" y="-43.3" font-family="Arial" font-size="9.00" fill="#c4c5bf">in1</text>
<polyline fill="none" stroke="#c4c5bf" points="550,-36.5 550,-54.5 "/>
<text text-anchor="middle" x="564.5" y="-43.3" font-family="Arial" font-size="9.00" fill="#c4c5bf">in2</text>
<polyline fill="none" stroke="#c4c5bf" points="579,-36.5 579,-54.5 "/>
<text text-anchor="middle" x="597" y="-43.3" font-family="Arial" font-size="9.00" fill="#c4c5bf">level</text>
<polyline fill="none" stroke="#c4c5bf" points="521,-36.5 615,-36.5 "/>
<text text-anchor="middle" x="568" y="-25.3" font-family="Arial" font-size="9.00" fill="#c4c5bf">UGFade: mlevel</text>
<polyline fill="none" stroke="#c4c5bf" points="521,-18.5 615,-18.5 "/>
<text text-anchor="middle" x="544.5" y="-7.3" font-family="Arial" font-size="9.00" fill="#c4c5bf">out1</text>
<polyline fill="none" stroke="#c4c5bf" points="568,-0.5 568,-18.5 "/>
<text text-anchor="middle" x="591.5" y="-7.3" font-family="Arial" font-size="9.00" fill="#c4c5bf">out2</text>
</g>
<!-- mix&#45;&gt;mlevel -->
<g id="edge9" class="edge">
<title>mix:s&#45;&gt;mlevel:n</title>
<path fill="none" stroke="#c4c5bf" d="M442,-91C442,-48.58 527.18,-94.98 534.5,-60.19"/>
<polygon fill="#c4c5bf" stroke="#c4c5bf" points="536.26,-60.14 535,-55 532.78,-59.81 536.26,-60.14"/>
</g>
<!-- mix&#45;&gt;mlevel -->
<g id="edge10" class="edge">
<title>mix:s&#45;&gt;mlevel:n</title>
<path fill="none" stroke="#c4c5bf" d="M658,-91C658,-48.19 571.9,-95.32 564.51,-60.24"/>
<polygon fill="#c4c5bf" stroke="#c4c5bf" points="566.22,-59.81 564,-55 562.74,-60.15 566.22,-59.81"/>
</g>
</g>
</svg>
