<?xml version="1.0" encoding="UTF-8" standalone="no"?>
<!DOCTYPE svg PUBLIC "-//W3C//DTD SVG 1.1//EN"
 "http://www.w3.org/Graphics/SVG/1.1/DTD/svg11.dtd">
<!-- Generated by graphviz version 13.0.1 (20250615.1724)
 -->
<!-- Title: GenGraph Pages: 1 -->
<svg width="218pt" height="250pt"
 viewBox="0.00 0.00 218.00 250.00" xmlns="http://www.w3.org/2000/svg" xmlns:xlink="http://www.w3.org/1999/xlink">
<g id="graph0" class="graph" transform="scale(1 1) rotate(0) translate(4 245.5)">
<title>GenGraph</title>
<polygon fill="#12131e" stroke="none" points="-4,4 -4,-245.5 213.5,-245.5 213.5,4 -4,4"/>
<!-- metro -->
<g id="node1" class="node">
<title>metro</title>
<polygon fill="none" stroke="#c4c5bf" points="16.5,-93 16.5,-148.5 97,-148.5 97,-93 16.5,-93"/>
<text xml:space="preserve" text-anchor="middle" x="56.75" y="-135.95" font-family="Arial" font-size="9.00" fill="#c4c5bf">in</text>
<polyline fill="none" stroke="#c4c5bf" points="16.5,-130 97,-130"/>
<text xml:space="preserve" text-anchor="middle" x="56.75" y="-117.45" font-family="Arial" font-size="9.00" fill="#c4c5bf">UGClock: metro</text>
<polyline fill="none" stroke="#c4c5bf" points="16.5,-111.5 97,-111.5"/>
<text xml:space="preserve" text-anchor="middle" x="56.38" y="-98.95" font-family="Arial" font-size="9.00" fill="#c4c5bf">out</text>
</g>
<!-- m1 -->
<g id="node4" class="node">
<title>m1</title>
<polygon fill="none" stroke="#c4c5bf" points="0,-0.5 0,-56 95.5,-56 95.5,-0.5 0,-0.5"/>
<text xml:space="preserve" text-anchor="middle" x="24.5" y="-43.45" font-family="Arial" font-size="9.00" fill="#c4c5bf">clock</text>
<polyline fill="none" stroke="#c4c5bf" points="49,-37.5 49,-56"/>
<text xml:space="preserve" text-anchor="middle" x="72.12" y="-43.45" font-family="Arial" font-size="9.00" fill="#c4c5bf">step</text>
<polyline fill="none" stroke="#c4c5bf" points="0,-37.5 95.5,-37.5"/>
<text xml:space="preserve" text-anchor="middle" x="47.75" y="-24.95" font-family="Arial" font-size="9.00" fill="#c4c5bf">UGPulseSelect: m1</text>
<polyline fill="none" stroke="#c4c5bf" points="0,-19 95.5,-19"/>
<text xml:space="preserve" text-anchor="middle" x="47.38" y="-6.45" font-family="Arial" font-size="9.00" fill="#c4c5bf">out</text>
</g>
<!-- metro&#45;&gt;m1 -->
<g id="edge2" class="edge">
<title>metro:s&#45;&gt;m1:n</title>
<path fill="none" stroke="#c4c5bf" d="M56.38,-92.5C56.38,-73.47 31.09,-76.73 25.56,-62.58"/>
<polygon fill="#c4c5bf" stroke="#c4c5bf" points="27.34,-62.62 24.76,-57.99 23.9,-63.22 27.34,-62.62"/>
</g>
<!-- m2 -->
<g id="node5" class="node">
<title>m2</title>
<polygon fill="none" stroke="#c4c5bf" points="114,-0.5 114,-56 209.5,-56 209.5,-0.5 114,-0.5"/>
<text xml:space="preserve" text-anchor="middle" x="138.5" y="-43.45" font-family="Arial" font-size="9.00" fill="#c4c5bf">clock</text>
<polyline fill="none" stroke="#c4c5bf" points="163,-37.5 163,-56"/>
<text xml:space="preserve" text-anchor="middle" x="186.12" y="-43.45" font-family="Arial" font-size="9.00" fill="#c4c5bf">step</text>
<polyline fill="none" stroke="#c4c5bf" points="114,-37.5 209.5,-37.5"/>
<text xml:space="preserve" text-anchor="middle" x="161.75" y="-24.95" font-family="Arial" font-size="9.00" fill="#c4c5bf">UGPulseSelect: m2</text>
<polyline fill="none" stroke="#c4c5bf" points="114,-19 209.5,-19"/>
<text xml:space="preserve" text-anchor="middle" x="161.38" y="-6.45" font-family="Arial" font-size="9.00" fill="#c4c5bf">out</text>
</g>
<!-- metro&#45;&gt;m2 -->
<g id="edge4" class="edge">
<title>metro:s&#45;&gt;m2:n</title>
<path fill="none" stroke="#c4c5bf" d="M56.38,-92.5C56.38,-54.98 129.16,-91.52 137.69,-62.68"/>
<polygon fill="#c4c5bf" stroke="#c4c5bf" points="139.39,-63.19 138.3,-58 135.92,-62.73 139.39,-63.19"/>
</g>
<!-- n4732f99f -->
<g id="node2" class="node">
<title>n4732f99f</title>
<polygon fill="none" stroke="#c4c5bf" points="104.5,-185.5 104.5,-241 203,-241 203,-185.5 104.5,-185.5"/>
<text xml:space="preserve" text-anchor="middle" x="153.75" y="-228.45" font-family="Arial" font-size="9.00" fill="#c4c5bf">in</text>
<polyline fill="none" stroke="#c4c5bf" points="104.5,-222.5 203,-222.5"/>
<text xml:space="preserve" text-anchor="middle" x="153.75" y="-209.95" font-family="Arial" font-size="9.00" fill="#c4c5bf">UGClock: n4732f99f</text>
<polyline fill="none" stroke="#c4c5bf" points="104.5,-204 203,-204"/>
<text xml:space="preserve" text-anchor="middle" x="153.38" y="-191.45" font-family="Arial" font-size="9.00" fill="#c4c5bf">out</text>
</g>
<!-- step -->
<g id="node3" class="node">
<title>step</title>
<polygon fill="none" stroke="#c4c5bf" points="131.38,-93 131.38,-148.5 208.12,-148.5 208.12,-93 131.38,-93"/>
<text xml:space="preserve" text-anchor="middle" x="152.5" y="-135.95" font-family="Arial" font-size="9.00" fill="#c4c5bf">trigger</text>
<polyline fill="none" stroke="#c4c5bf" points="173.62,-130 173.62,-148.5"/>
<text xml:space="preserve" text-anchor="middle" x="190.75" y="-135.95" font-family="Arial" font-size="9.00" fill="#c4c5bf">step</text>
<polyline fill="none" stroke="#c4c5bf" points="131.38,-130 208.12,-130"/>
<text xml:space="preserve" text-anchor="middle" x="169.75" y="-117.45" font-family="Arial" font-size="9.00" fill="#c4c5bf">UGSelect: step</text>
<polyline fill="none" stroke="#c4c5bf" points="131.38,-111.5 208.12,-111.5"/>
<text xml:space="preserve" text-anchor="middle" x="169.75" y="-98.95" font-family="Arial" font-size="9.00" fill="#c4c5bf">out</text>
</g>
<!-- n4732f99f&#45;&gt;step -->
<g id="edge1" class="edge">
<title>n4732f99f:s&#45;&gt;step:n</title>
<path fill="none" stroke="#c4c5bf" d="M153.38,-185C153.38,-171.37 152.74,-166.45 152.55,-155.41"/>
<polygon fill="#c4c5bf" stroke="#c4c5bf" points="154.3,-155.5 152.51,-150.51 150.8,-155.53 154.3,-155.5"/>
</g>
<!-- step&#45;&gt;m1 -->
<g id="edge3" class="edge">
<title>step:s&#45;&gt;m1:n</title>
<path fill="none" stroke="#c4c5bf" d="M169.75,-92.5C169.75,-48.6 81.79,-97.27 72.85,-62.78"/>
<polygon fill="#c4c5bf" stroke="#c4c5bf" points="74.62,-62.77 72.3,-58 71.14,-63.17 74.62,-62.77"/>
</g>
<!-- step&#45;&gt;m2 -->
<g id="edge5" class="edge">
<title>step:s&#45;&gt;m2:n</title>
<path fill="none" stroke="#c4c5bf" d="M169.75,-92.5C169.75,-77.26 182.06,-74.6 185.34,-62.7"/>
<polygon fill="#c4c5bf" stroke="#c4c5bf" points="187.04,-63.18 185.93,-58 183.57,-62.74 187.04,-63.18"/>
</g>
</g>
</svg>
