<?xml version="1.0" encoding="UTF-8" standalone="no"?>
<!DOCTYPE svg PUBLIC "-//W3C//DTD SVG 1.1//EN"
 "http://www.w3.org/Graphics/SVG/1.1/DTD/svg11.dtd">
<!-- Generated by graphviz version 2.43.0 (0)
 -->
<!-- Title: GenGraph Pages: 1 -->
<svg width="348pt" height="336pt"
 viewBox="0.00 0.00 348.00 336.00" xmlns="http://www.w3.org/2000/svg" xmlns:xlink="http://www.w3.org/1999/xlink">
<g id="graph0" class="graph" transform="scale(1 1) rotate(0) translate(4 332)">
<title>GenGraph</title>
<polygon fill="#12131e" stroke="transparent" points="-4,4 -4,-332 344,-332 344,4 -4,4"/>
<!-- n15da666c -->
<g id="node1" class="node">
<title>n15da666c</title>
<polygon fill="none" stroke="#c4c5bf" points="0,-273.5 0,-327.5 132,-327.5 132,-273.5 0,-273.5"/>
<text text-anchor="middle" x="16" y="-316.3" font-family="Arial" font-size="9.00" fill="#c4c5bf">rate</text>
<polyline fill="none" stroke="#c4c5bf" points="32,-309.5 32,-327.5 "/>
<text text-anchor="middle" x="49" y="-316.3" font-family="Arial" font-size="9.00" fill="#c4c5bf">duty</text>
<polyline fill="none" stroke="#c4c5bf" points="66,-309.5 66,-327.5 "/>
<text text-anchor="middle" x="82" y="-316.3" font-family="Arial" font-size="9.00" fill="#c4c5bf">min</text>
<polyline fill="none" stroke="#c4c5bf" points="98,-309.5 98,-327.5 "/>
<text text-anchor="middle" x="115" y="-316.3" font-family="Arial" font-size="9.00" fill="#c4c5bf">max</text>
<polyline fill="none" stroke="#c4c5bf" points="0,-309.5 132,-309.5 "/>
<text text-anchor="middle" x="66" y="-298.3" font-family="Arial" font-size="9.00" fill="#c4c5bf">UGLfo: n15da666c</text>
<polyline fill="none" stroke="#c4c5bf" points="0,-291.5 132,-291.5 "/>
<text text-anchor="middle" x="66" y="-280.3" font-family="Arial" font-size="9.00" fill="#c4c5bf">wave</text>
</g>
<!-- s -->
<g id="node3" class="node">
<title>s</title>
<polygon fill="none" stroke="#c4c5bf" points="50,-182.5 50,-236.5 190,-236.5 190,-182.5 50,-182.5"/>
<text text-anchor="middle" x="66" y="-225.3" font-family="Arial" font-size="9.00" fill="#c4c5bf">freq</text>
<polyline fill="none" stroke="#c4c5bf" points="82,-218.5 82,-236.5 "/>
<text text-anchor="middle" x="103" y="-225.3" font-family="Arial" font-size="9.00" fill="#c4c5bf">phase</text>
<polyline fill="none" stroke="#c4c5bf" points="124,-218.5 124,-236.5 "/>
<text text-anchor="middle" x="140" y="-225.3" font-family="Arial" font-size="9.00" fill="#c4c5bf">min</text>
<polyline fill="none" stroke="#c4c5bf" points="156,-218.5 156,-236.5 "/>
<text text-anchor="middle" x="173" y="-225.3" font-family="Arial" font-size="9.00" fill="#c4c5bf">max</text>
<polyline fill="none" stroke="#c4c5bf" points="50,-218.5 190,-218.5 "/>
<text text-anchor="middle" x="120" y="-207.3" font-family="Arial" font-size="9.00" fill="#c4c5bf">UGSine: s</text>
<polyline fill="none" stroke="#c4c5bf" points="50,-200.5 190,-200.5 "/>
<text text-anchor="middle" x="83.5" y="-189.3" font-family="Arial" font-size="9.00" fill="#c4c5bf">wave</text>
<polyline fill="none" stroke="#c4c5bf" points="117,-182.5 117,-200.5 "/>
<text text-anchor="middle" x="153.5" y="-189.3" font-family="Arial" font-size="9.00" fill="#c4c5bf">trigger</text>
</g>
<!-- n15da666c&#45;&gt;s -->
<g id="edge1" class="edge">
<title>n15da666c:s&#45;&gt;s:n</title>
<path fill="none" stroke="#c4c5bf" d="M66,-273C66,-258.88 66,-254.1 66,-242.17"/>
<polygon fill="#c4c5bf" stroke="#c4c5bf" points="67.75,-242 66,-237 64.25,-242 67.75,-242"/>
</g>
<!-- n20c9b08d -->
<g id="node2" class="node">
<title>n20c9b08d</title>
<polygon fill="none" stroke="#c4c5bf" points="208,-182.5 208,-236.5 340,-236.5 340,-182.5 208,-182.5"/>
<text text-anchor="middle" x="224" y="-225.3" font-family="Arial" font-size="9.00" fill="#c4c5bf">rate</text>
<polyline fill="none" stroke="#c4c5bf" points="240,-218.5 240,-236.5 "/>
<text text-anchor="middle" x="257" y="-225.3" font-family="Arial" font-size="9.00" fill="#c4c5bf">duty</text>
<polyline fill="none" stroke="#c4c5bf" points="274,-218.5 274,-236.5 "/>
<text text-anchor="middle" x="290" y="-225.3" font-family="Arial" font-size="9.00" fill="#c4c5bf">min</text>
<polyline fill="none" stroke="#c4c5bf" points="306,-218.5 306,-236.5 "/>
<text text-anchor="middle" x="323" y="-225.3" font-family="Arial" font-size="9.00" fill="#c4c5bf">max</text>
<polyline fill="none" stroke="#c4c5bf" points="208,-218.5 340,-218.5 "/>
<text text-anchor="middle" x="274" y="-207.3" font-family="Arial" font-size="9.00" fill="#c4c5bf">UGLfo: n20c9b08d</text>
<polyline fill="none" stroke="#c4c5bf" points="208,-200.5 340,-200.5 "/>
<text text-anchor="middle" x="274" y="-189.3" font-family="Arial" font-size="9.00" fill="#c4c5bf">wave</text>
</g>
<!-- p -->
<g id="node4" class="node">
<title>p</title>
<polygon fill="none" stroke="#c4c5bf" points="145,-91.5 145,-145.5 215,-145.5 215,-91.5 145,-91.5"/>
<text text-anchor="middle" x="160.5" y="-134.3" font-family="Arial" font-size="9.00" fill="#c4c5bf">in</text>
<polyline fill="none" stroke="#c4c5bf" points="176,-127.5 176,-145.5 "/>
<text text-anchor="middle" x="195.5" y="-134.3" font-family="Arial" font-size="9.00" fill="#c4c5bf">pan</text>
<polyline fill="none" stroke="#c4c5bf" points="145,-127.5 215,-127.5 "/>
<text text-anchor="middle" x="180" y="-116.3" font-family="Arial" font-size="9.00" fill="#c4c5bf">UGPan: p</text>
<polyline fill="none" stroke="#c4c5bf" points="145,-109.5 215,-109.5 "/>
<text text-anchor="middle" x="162.5" y="-98.3" font-family="Arial" font-size="9.00" fill="#c4c5bf">out1</text>
<polyline fill="none" stroke="#c4c5bf" points="180,-91.5 180,-109.5 "/>
<text text-anchor="middle" x="197.5" y="-98.3" font-family="Arial" font-size="9.00" fill="#c4c5bf">out2</text>
</g>
<!-- n20c9b08d&#45;&gt;p -->
<g id="edge3" class="edge">
<title>n20c9b08d:s&#45;&gt;p:n</title>
<path fill="none" stroke="#c4c5bf" d="M274,-182C274,-145.76 203.72,-180.28 196.58,-151.23"/>
<polygon fill="#c4c5bf" stroke="#c4c5bf" points="198.29,-150.78 196,-146 194.81,-151.16 198.29,-150.78"/>
</g>
<!-- s&#45;&gt;p -->
<g id="edge2" class="edge">
<title>s:s&#45;&gt;p:n</title>
<path fill="none" stroke="#c4c5bf" d="M83,-182C83,-146.14 152.38,-179.96 159.42,-151.18"/>
<polygon fill="#c4c5bf" stroke="#c4c5bf" points="161.19,-151.16 160,-146 157.71,-150.78 161.19,-151.16"/>
</g>
<!-- n45eb09d0 -->
<g id="node5" class="node">
<title>n45eb09d0</title>
<polygon fill="none" stroke="#c4c5bf" points="148.5,-0.5 148.5,-54.5 251.5,-54.5 251.5,-0.5 148.5,-0.5"/>
<text text-anchor="middle" x="164.5" y="-43.3" font-family="Arial" font-size="9.00" fill="#c4c5bf">in1</text>
<polyline fill="none" stroke="#c4c5bf" points="180.5,-36.5 180.5,-54.5 "/>
<text text-anchor="middle" x="196.5" y="-43.3" font-family="Arial" font-size="9.00" fill="#c4c5bf">in2</text>
<polyline fill="none" stroke="#c4c5bf" points="212.5,-36.5 212.5,-54.5 "/>
<text text-anchor="middle" x="232" y="-43.3" font-family="Arial" font-size="9.00" fill="#c4c5bf">level</text>
<polyline fill="none" stroke="#c4c5bf" points="148.5,-36.5 251.5,-36.5 "/>
<text text-anchor="middle" x="200" y="-25.3" font-family="Arial" font-size="9.00" fill="#c4c5bf">UGFade: n45eb09d0</text>
<polyline fill="none" stroke="#c4c5bf" points="148.5,-18.5 251.5,-18.5 "/>
<text text-anchor="middle" x="174" y="-7.3" font-family="Arial" font-size="9.00" fill="#c4c5bf">out1</text>
<polyline fill="none" stroke="#c4c5bf" points="199.5,-0.5 199.5,-18.5 "/>
<text text-anchor="middle" x="225.5" y="-7.3" font-family="Arial" font-size="9.00" fill="#c4c5bf">out2</text>
</g>
<!-- p&#45;&gt;n45eb09d0 -->
<g id="edge4" class="edge">
<title>p:s&#45;&gt;n45eb09d0:n</title>
<path fill="none" stroke="#c4c5bf" d="M162,-91C162,-76.85 163.56,-72.12 163.92,-60.18"/>
<polygon fill="#c4c5bf" stroke="#c4c5bf" points="165.68,-60.03 164,-55 162.18,-59.97 165.68,-60.03"/>
</g>
<!-- p&#45;&gt;n45eb09d0 -->
<g id="edge5" class="edge">
<title>p:s&#45;&gt;n45eb09d0:n</title>
<path fill="none" stroke="#c4c5bf" d="M198,-91C198,-76.85 196.44,-72.12 196.08,-60.18"/>
<polygon fill="#c4c5bf" stroke="#c4c5bf" points="197.82,-59.97 196,-55 194.32,-60.03 197.82,-59.97"/>
</g>
</g>
</svg>
