<?xml version="1.0" encoding="UTF-8" standalone="no"?>
<!DOCTYPE svg PUBLIC "-//W3C//DTD SVG 1.1//EN"
 "http://www.w3.org/Graphics/SVG/1.1/DTD/svg11.dtd">
<!-- Generated by graphviz version 2.43.0 (0)
 -->
<!-- Title: GenGraph Pages: 1 -->
<svg width="218pt" height="245pt"
 viewBox="0.00 0.00 218.00 245.00" xmlns="http://www.w3.org/2000/svg" xmlns:xlink="http://www.w3.org/1999/xlink">
<g id="graph0" class="graph" transform="scale(1 1) rotate(0) translate(4 241)">
<title>GenGraph</title>
<polygon fill="#12131e" stroke="transparent" points="-4,4 -4,-241 214,-241 214,4 -4,4"/>
<!-- metro -->
<g id="node1" class="node">
<title>metro</title>
<polygon fill="none" stroke="#c4c5bf" points="0.5,-91.5 0.5,-145.5 81.5,-145.5 81.5,-91.5 0.5,-91.5"/>
<text text-anchor="middle" x="41" y="-134.3" font-family="Arial" font-size="9.00" fill="#c4c5bf">in</text>
<polyline fill="none" stroke="#c4c5bf" points="0.5,-127.5 81.5,-127.5 "/>
<text text-anchor="middle" x="41" y="-116.3" font-family="Arial" font-size="9.00" fill="#c4c5bf">UGClock: metro</text>
<polyline fill="none" stroke="#c4c5bf" points="0.5,-109.5 81.5,-109.5 "/>
<text text-anchor="middle" x="41" y="-98.3" font-family="Arial" font-size="9.00" fill="#c4c5bf">out</text>
</g>
<!-- m1 -->
<g id="node4" class="node">
<title>m1</title>
<polygon fill="none" stroke="#c4c5bf" points="0,-0.5 0,-54.5 96,-54.5 96,-0.5 0,-0.5"/>
<text text-anchor="middle" x="25" y="-43.3" font-family="Arial" font-size="9.00" fill="#c4c5bf">clock</text>
<polyline fill="none" stroke="#c4c5bf" points="50,-36.5 50,-54.5 "/>
<text text-anchor="middle" x="73" y="-43.3" font-family="Arial" font-size="9.00" fill="#c4c5bf">step</text>
<polyline fill="none" stroke="#c4c5bf" points="0,-36.5 96,-36.5 "/>
<text text-anchor="middle" x="48" y="-25.3" font-family="Arial" font-size="9.00" fill="#c4c5bf">UGPulseSelect: m1</text>
<polyline fill="none" stroke="#c4c5bf" points="0,-18.5 96,-18.5 "/>
<text text-anchor="middle" x="48" y="-7.3" font-family="Arial" font-size="9.00" fill="#c4c5bf">out</text>
</g>
<!-- metro&#45;&gt;m1 -->
<g id="edge2" class="edge">
<title>metro:s&#45;&gt;m1:n</title>
<path fill="none" stroke="#c4c5bf" d="M41,-91C41,-75.41 28.31,-72.92 25.53,-60.2"/>
<polygon fill="#c4c5bf" stroke="#c4c5bf" points="27.25,-59.8 25,-55 23.77,-60.15 27.25,-59.8"/>
</g>
<!-- m2 -->
<g id="node5" class="node">
<title>m2</title>
<polygon fill="none" stroke="#c4c5bf" points="114,-0.5 114,-54.5 210,-54.5 210,-0.5 114,-0.5"/>
<text text-anchor="middle" x="139" y="-43.3" font-family="Arial" font-size="9.00" fill="#c4c5bf">clock</text>
<polyline fill="none" stroke="#c4c5bf" points="164,-36.5 164,-54.5 "/>
<text text-anchor="middle" x="187" y="-43.3" font-family="Arial" font-size="9.00" fill="#c4c5bf">step</text>
<polyline fill="none" stroke="#c4c5bf" points="114,-36.5 210,-36.5 "/>
<text text-anchor="middle" x="162" y="-25.3" font-family="Arial" font-size="9.00" fill="#c4c5bf">UGPulseSelect: m2</text>
<polyline fill="none" stroke="#c4c5bf" points="114,-18.5 210,-18.5 "/>
<text text-anchor="middle" x="162" y="-7.3" font-family="Arial" font-size="9.00" fill="#c4c5bf">out</text>
</g>
<!-- metro&#45;&gt;m2 -->
<g id="edge4" class="edge">
<title>metro:s&#45;&gt;m2:n</title>
<path fill="none" stroke="#c4c5bf" d="M41,-91C41,-46.59 130.76,-96.71 138.47,-60.43"/>
<polygon fill="#c4c5bf" stroke="#c4c5bf" points="140.26,-60.15 139,-55 136.77,-59.81 140.26,-60.15"/>
</g>
<!-- ncd6257ff -->
<g id="node2" class="node">
<title>ncd6257ff</title>
<polygon fill="none" stroke="#c4c5bf" points="104,-182.5 104,-236.5 202,-236.5 202,-182.5 104,-182.5"/>
<text text-anchor="middle" x="153" y="-225.3" font-family="Arial" font-size="9.00" fill="#c4c5bf">in</text>
<polyline fill="none" stroke="#c4c5bf" points="104,-218.5 202,-218.5 "/>
<text text-anchor="middle" x="153" y="-207.3" font-family="Arial" font-size="9.00" fill="#c4c5bf">UGClock: ncd6257ff</text>
<polyline fill="none" stroke="#c4c5bf" points="104,-200.5 202,-200.5 "/>
<text text-anchor="middle" x="153" y="-189.3" font-family="Arial" font-size="9.00" fill="#c4c5bf">out</text>
</g>
<!-- step -->
<g id="node3" class="node">
<title>step</title>
<polygon fill="none" stroke="#c4c5bf" points="131.5,-91.5 131.5,-145.5 208.5,-145.5 208.5,-91.5 131.5,-91.5"/>
<text text-anchor="middle" x="153" y="-134.3" font-family="Arial" font-size="9.00" fill="#c4c5bf">trigger</text>
<polyline fill="none" stroke="#c4c5bf" points="174.5,-127.5 174.5,-145.5 "/>
<text text-anchor="middle" x="191.5" y="-134.3" font-family="Arial" font-size="9.00" fill="#c4c5bf">step</text>
<polyline fill="none" stroke="#c4c5bf" points="131.5,-127.5 208.5,-127.5 "/>
<text text-anchor="middle" x="170" y="-116.3" font-family="Arial" font-size="9.00" fill="#c4c5bf">UGSelect: step</text>
<polyline fill="none" stroke="#c4c5bf" points="131.5,-109.5 208.5,-109.5 "/>
<text text-anchor="middle" x="170" y="-98.3" font-family="Arial" font-size="9.00" fill="#c4c5bf">out</text>
</g>
<!-- ncd6257ff&#45;&gt;step -->
<g id="edge1" class="edge">
<title>ncd6257ff:s&#45;&gt;step:n</title>
<path fill="none" stroke="#c4c5bf" d="M153,-182C153,-167.88 153,-163.1 153,-151.17"/>
<polygon fill="#c4c5bf" stroke="#c4c5bf" points="154.75,-151 153,-146 151.25,-151 154.75,-151"/>
</g>
<!-- step&#45;&gt;m1 -->
<g id="edge3" class="edge">
<title>step:s&#45;&gt;m1:n</title>
<path fill="none" stroke="#c4c5bf" d="M170,-91C170,-46.99 81.16,-96.36 73.52,-60.38"/>
<polygon fill="#c4c5bf" stroke="#c4c5bf" points="75.22,-59.81 73,-55 71.74,-60.15 75.22,-59.81"/>
</g>
<!-- step&#45;&gt;m2 -->
<g id="edge5" class="edge">
<title>step:s&#45;&gt;m2:n</title>
<path fill="none" stroke="#c4c5bf" d="M170,-91C170,-75.24 183.48,-73.03 186.43,-60.24"/>
<polygon fill="#c4c5bf" stroke="#c4c5bf" points="188.2,-60.16 187,-55 184.72,-59.78 188.2,-60.16"/>
</g>
</g>
</svg>
