<?xml version="1.0" encoding="UTF-8" standalone="no"?>
<!DOCTYPE svg PUBLIC "-//W3C//DTD SVG 1.1//EN"
 "http://www.w3.org/Graphics/SVG/1.1/DTD/svg11.dtd">
<!-- Generated by graphviz version 13.0.1 (20250615.1724)
 -->
<!-- Title: GenGraph Pages: 1 -->
<svg width="340pt" height="342pt"
 viewBox="0.00 0.00 340.00 342.00" xmlns="http://www.w3.org/2000/svg" xmlns:xlink="http://www.w3.org/1999/xlink">
<g id="graph0" class="graph" transform="scale(1 1) rotate(0) translate(4 338)">
<title>GenGraph</title>
<polygon fill="#12131e" stroke="none" points="-4,4 -4,-338 336.25,-338 336.25,4 -4,4"/>
<!-- n15da666c -->
<g id="node1" class="node">
<title>n15da666c</title>
<polygon fill="none" stroke="#c4c5bf" points="0,-278 0,-333.5 129.25,-333.5 129.25,-278 0,-278"/>
<text xml:space="preserve" text-anchor="middle" x="15.88" y="-320.95" font-family="Arial" font-size="9.00" fill="#c4c5bf">rate</text>
<polyline fill="none" stroke="#c4c5bf" points="31.75,-315 31.75,-333.5"/>
<text xml:space="preserve" text-anchor="middle" x="48.38" y="-320.95" font-family="Arial" font-size="9.00" fill="#c4c5bf">duty</text>
<polyline fill="none" stroke="#c4c5bf" points="65,-315 65,-333.5"/>
<text xml:space="preserve" text-anchor="middle" x="80.5" y="-320.95" font-family="Arial" font-size="9.00" fill="#c4c5bf">min</text>
<polyline fill="none" stroke="#c4c5bf" points="96,-315 96,-333.5"/>
<text xml:space="preserve" text-anchor="middle" x="112.62" y="-320.95" font-family="Arial" font-size="9.00" fill="#c4c5bf">max</text>
<polyline fill="none" stroke="#c4c5bf" points="0,-315 129.25,-315"/>
<text xml:space="preserve" text-anchor="middle" x="64.62" y="-302.45" font-family="Arial" font-size="9.00" fill="#c4c5bf">UGLfo: n15da666c</text>
<polyline fill="none" stroke="#c4c5bf" points="0,-296.5 129.25,-296.5"/>
<text xml:space="preserve" text-anchor="middle" x="64.38" y="-283.95" font-family="Arial" font-size="9.00" fill="#c4c5bf">wave</text>
</g>
<!-- s -->
<g id="node3" class="node">
<title>s</title>
<polygon fill="none" stroke="#c4c5bf" points="47.88,-185.5 47.88,-241 185.38,-241 185.38,-185.5 47.88,-185.5"/>
<text xml:space="preserve" text-anchor="middle" x="63.75" y="-228.45" font-family="Arial" font-size="9.00" fill="#c4c5bf">freq</text>
<polyline fill="none" stroke="#c4c5bf" points="79.62,-222.5 79.62,-241"/>
<text xml:space="preserve" text-anchor="middle" x="100.38" y="-228.45" font-family="Arial" font-size="9.00" fill="#c4c5bf">phase</text>
<polyline fill="none" stroke="#c4c5bf" points="121.12,-222.5 121.12,-241"/>
<text xml:space="preserve" text-anchor="middle" x="136.62" y="-228.45" font-family="Arial" font-size="9.00" fill="#c4c5bf">min</text>
<polyline fill="none" stroke="#c4c5bf" points="152.12,-222.5 152.12,-241"/>
<text xml:space="preserve" text-anchor="middle" x="168.75" y="-228.45" font-family="Arial" font-size="9.00" fill="#c4c5bf">max</text>
<polyline fill="none" stroke="#c4c5bf" points="47.88,-222.5 185.38,-222.5"/>
<text xml:space="preserve" text-anchor="middle" x="116.62" y="-209.95" font-family="Arial" font-size="9.00" fill="#c4c5bf">UGSine: s</text>
<polyline fill="none" stroke="#c4c5bf" points="47.88,-204 185.38,-204"/>
<text xml:space="preserve" text-anchor="middle" x="80.75" y="-191.45" font-family="Arial" font-size="9.00" fill="#c4c5bf">wave</text>
<polyline fill="none" stroke="#c4c5bf" points="113.62,-185.5 113.62,-204"/>
<text xml:space="preserve" text-anchor="middle" x="149.25" y="-191.45" font-family="Arial" font-size="9.00" fill="#c4c5bf">trigger</text>
</g>
<!-- n15da666c&#45;&gt;s -->
<g id="edge1" class="edge">
<title>n15da666c:s&#45;&gt;s:n</title>
<path fill="none" stroke="#c4c5bf" d="M64.38,-277.5C64.38,-263.87 63.92,-258.95 63.79,-247.91"/>
<polygon fill="#c4c5bf" stroke="#c4c5bf" points="65.54,-248 63.76,-243.01 62.04,-248.02 65.54,-248"/>
</g>
<!-- n20c9b08d -->
<g id="node2" class="node">
<title>n20c9b08d</title>
<polygon fill="none" stroke="#c4c5bf" points="203,-185.5 203,-241 332.25,-241 332.25,-185.5 203,-185.5"/>
<text xml:space="preserve" text-anchor="middle" x="218.88" y="-228.45" font-family="Arial" font-size="9.00" fill="#c4c5bf">rate</text>
<polyline fill="none" stroke="#c4c5bf" points="234.75,-222.5 234.75,-241"/>
<text xml:space="preserve" text-anchor="middle" x="251.38" y="-228.45" font-family="Arial" font-size="9.00" fill="#c4c5bf">duty</text>
<polyline fill="none" stroke="#c4c5bf" points="268,-222.5 268,-241"/>
<text xml:space="preserve" text-anchor="middle" x="283.5" y="-228.45" font-family="Arial" font-size="9.00" fill="#c4c5bf">min</text>
<polyline fill="none" stroke="#c4c5bf" points="299,-222.5 299,-241"/>
<text xml:space="preserve" text-anchor="middle" x="315.62" y="-228.45" font-family="Arial" font-size="9.00" fill="#c4c5bf">max</text>
<polyline fill="none" stroke="#c4c5bf" points="203,-222.5 332.25,-222.5"/>
<text xml:space="preserve" text-anchor="middle" x="267.62" y="-209.95" font-family="Arial" font-size="9.00" fill="#c4c5bf">UGLfo: n20c9b08d</text>
<polyline fill="none" stroke="#c4c5bf" points="203,-204 332.25,-204"/>
<text xml:space="preserve" text-anchor="middle" x="267.38" y="-191.45" font-family="Arial" font-size="9.00" fill="#c4c5bf">wave</text>
</g>
<!-- p -->
<g id="node4" class="node">
<title>p</title>
<polygon fill="none" stroke="#c4c5bf" points="142.62,-93 142.62,-148.5 210.62,-148.5 210.62,-93 142.62,-93"/>
<text xml:space="preserve" text-anchor="middle" x="157.38" y="-135.95" font-family="Arial" font-size="9.00" fill="#c4c5bf">in</text>
<polyline fill="none" stroke="#c4c5bf" points="172.12,-130 172.12,-148.5"/>
<text xml:space="preserve" text-anchor="middle" x="191" y="-135.95" font-family="Arial" font-size="9.00" fill="#c4c5bf">pan</text>
<polyline fill="none" stroke="#c4c5bf" points="142.62,-130 210.62,-130"/>
<text xml:space="preserve" text-anchor="middle" x="176.62" y="-117.45" font-family="Arial" font-size="9.00" fill="#c4c5bf">UGPan: p</text>
<polyline fill="none" stroke="#c4c5bf" points="142.62,-111.5 210.62,-111.5"/>
<text xml:space="preserve" text-anchor="middle" x="159.62" y="-98.95" font-family="Arial" font-size="9.00" fill="#c4c5bf">out1</text>
<polyline fill="none" stroke="#c4c5bf" points="176.62,-93 176.62,-111.5"/>
<text xml:space="preserve" text-anchor="middle" x="193.62" y="-98.95" font-family="Arial" font-size="9.00" fill="#c4c5bf">out2</text>
</g>
<!-- n20c9b08d&#45;&gt;p -->
<g id="edge3" class="edge">
<title>n20c9b08d:s&#45;&gt;p:n</title>
<path fill="none" stroke="#c4c5bf" d="M267.38,-185C267.38,-149.82 200.25,-181.94 191.86,-155.18"/>
<polygon fill="#c4c5bf" stroke="#c4c5bf" points="193.63,-155.21 191.21,-150.5 190.16,-155.69 193.63,-155.21"/>
</g>
<!-- s&#45;&gt;p -->
<g id="edge2" class="edge">
<title>s:s&#45;&gt;p:n</title>
<path fill="none" stroke="#c4c5bf" d="M80.75,-185C80.75,-149.72 148.1,-182.02 156.51,-155.19"/>
<polygon fill="#c4c5bf" stroke="#c4c5bf" points="158.21,-155.69 157.17,-150.5 154.74,-155.21 158.21,-155.69"/>
</g>
<!-- n45eb09d0 -->
<g id="node5" class="node">
<title>n45eb09d0</title>
<polygon fill="none" stroke="#c4c5bf" points="144.5,-0.5 144.5,-56 246.75,-56 246.75,-0.5 144.5,-0.5"/>
<text xml:space="preserve" text-anchor="middle" x="160.38" y="-43.45" font-family="Arial" font-size="9.00" fill="#c4c5bf">in1</text>
<polyline fill="none" stroke="#c4c5bf" points="176.25,-37.5 176.25,-56"/>
<text xml:space="preserve" text-anchor="middle" x="192.12" y="-43.45" font-family="Arial" font-size="9.00" fill="#c4c5bf">in2</text>
<polyline fill="none" stroke="#c4c5bf" points="208,-37.5 208,-56"/>
<text xml:space="preserve" text-anchor="middle" x="227.25" y="-43.45" font-family="Arial" font-size="9.00" fill="#c4c5bf">level</text>
<polyline fill="none" stroke="#c4c5bf" points="144.5,-37.5 246.75,-37.5"/>
<text xml:space="preserve" text-anchor="middle" x="195.62" y="-24.95" font-family="Arial" font-size="9.00" fill="#c4c5bf">UGFade: n45eb09d0</text>
<polyline fill="none" stroke="#c4c5bf" points="144.5,-19 246.75,-19"/>
<text xml:space="preserve" text-anchor="middle" x="170" y="-6.45" font-family="Arial" font-size="9.00" fill="#c4c5bf">out1</text>
<polyline fill="none" stroke="#c4c5bf" points="195.5,-0.5 195.5,-19"/>
<text xml:space="preserve" text-anchor="middle" x="221" y="-6.45" font-family="Arial" font-size="9.00" fill="#c4c5bf">out2</text>
</g>
<!-- p&#45;&gt;n45eb09d0 -->
<g id="edge4" class="edge">
<title>p:s&#45;&gt;n45eb09d0:n</title>
<path fill="none" stroke="#c4c5bf" d="M159.62,-92.5C159.62,-78.87 160.17,-73.95 160.33,-62.91"/>
<polygon fill="#c4c5bf" stroke="#c4c5bf" points="162.08,-63.03 160.36,-58.01 158.58,-63 162.08,-63.03"/>
</g>
<!-- p&#45;&gt;n45eb09d0 -->
<g id="edge5" class="edge">
<title>p:s&#45;&gt;n45eb09d0:n</title>
<path fill="none" stroke="#c4c5bf" d="M193.62,-92.5C193.62,-78.86 192.54,-73.96 192.21,-62.91"/>
<polygon fill="#c4c5bf" stroke="#c4c5bf" points="193.97,-62.99 192.15,-58.01 190.47,-63.04 193.97,-62.99"/>
</g>
</g>
</svg>
