<?xml version="1.0" encoding="UTF-8" standalone="no"?>
<!DOCTYPE svg PUBLIC "-//W3C//DTD SVG 1.1//EN"
 "http://www.w3.org/Graphics/SVG/1.1/DTD/svg11.dtd">
<!-- Generated by graphviz version 2.43.0 (0)
 -->
<!-- Title: GenGraph Pages: 1 -->
<svg width="348pt" height="245pt"
 viewBox="0.00 0.00 348.00 245.00" xmlns="http://www.w3.org/2000/svg" xmlns:xlink="http://www.w3.org/1999/xlink">
<g id="graph0" class="graph" transform="scale(1 1) rotate(0) translate(4 241)">
<title>GenGraph</title>
<polygon fill="#12131e" stroke="transparent" points="-4,4 -4,-241 344,-241 344,4 -4,4"/>
<!-- n15da666c -->
<g id="node1" class="node">
<title>n15da666c</title>
<polygon fill="none" stroke="#c4c5bf" points="0,-182.5 0,-236.5 132,-236.5 132,-182.5 0,-182.5"/>
<text text-anchor="middle" x="16" y="-225.3" font-family="Arial" font-size="9.00" fill="#c4c5bf">rate</text>
<polyline fill="none" stroke="#c4c5bf" points="32,-218.5 32,-236.5 "/>
<text text-anchor="middle" x="49" y="-225.3" font-family="Arial" font-size="9.00" fill="#c4c5bf">duty</text>
<polyline fill="none" stroke="#c4c5bf" points="66,-218.5 66,-236.5 "/>
<text text-anchor="middle" x="82" y="-225.3" font-family="Arial" font-size="9.00" fill="#c4c5bf">min</text>
<polyline fill="none" stroke="#c4c5bf" points="98,-218.5 98,-236.5 "/>
<text text-anchor="middle" x="115" y="-225.3" font-family="Arial" font-size="9.00" fill="#c4c5bf">max</text>
<polyline fill="none" stroke="#c4c5bf" points="0,-218.5 132,-218.5 "/>
<text text-anchor="middle" x="66" y="-207.3" font-family="Arial" font-size="9.00" fill="#c4c5bf">UGLfo: n15da666c</text>
<polyline fill="none" stroke="#c4c5bf" points="0,-200.5 132,-200.5 "/>
<text text-anchor="middle" x="66" y="-189.3" font-family="Arial" font-size="9.00" fill="#c4c5bf">wave</text>
</g>
<!-- s -->
<g id="node3" class="node">
<title>s</title>
<polygon fill="none" stroke="#c4c5bf" points="50,-91.5 50,-145.5 190,-145.5 190,-91.5 50,-91.5"/>
<text text-anchor="middle" x="66" y="-134.3" font-family="Arial" font-size="9.00" fill="#c4c5bf">freq</text>
<polyline fill="none" stroke="#c4c5bf" points="82,-127.5 82,-145.5 "/>
<text text-anchor="middle" x="103" y="-134.3" font-family="Arial" font-size="9.00" fill="#c4c5bf">phase</text>
<polyline fill="none" stroke="#c4c5bf" points="124,-127.5 124,-145.5 "/>
<text text-anchor="middle" x="140" y="-134.3" font-family="Arial" font-size="9.00" fill="#c4c5bf">min</text>
<polyline fill="none" stroke="#c4c5bf" points="156,-127.5 156,-145.5 "/>
<text text-anchor="middle" x="173" y="-134.3" font-family="Arial" font-size="9.00" fill="#c4c5bf">max</text>
<polyline fill="none" stroke="#c4c5bf" points="50,-127.5 190,-127.5 "/>
<text text-anchor="middle" x="120" y="-116.3" font-family="Arial" font-size="9.00" fill="#c4c5bf">UGSine: s</text>
<polyline fill="none" stroke="#c4c5bf" points="50,-109.5 190,-109.5 "/>
<text text-anchor="middle" x="83.5" y="-98.3" font-family="Arial" font-size="9.00" fill="#c4c5bf">wave</text>
<polyline fill="none" stroke="#c4c5bf" points="117,-91.5 117,-109.5 "/>
<text text-anchor="middle" x="153.5" y="-98.3" font-family="Arial" font-size="9.00" fill="#c4c5bf">trigger</text>
</g>
<!-- n15da666c&#45;&gt;s -->
<g id="edge1" class="edge">
<title>n15da666c:s&#45;&gt;s:n</title>
<path fill="none" stroke="#c4c5bf" d="M66,-182C66,-167.88 66,-163.1 66,-151.17"/>
<polygon fill="#c4c5bf" stroke="#c4c5bf" points="67.75,-151 66,-146 64.25,-151 67.75,-151"/>
</g>
<!-- nfffbd22a -->
<g id="node2" class="node">
<title>nfffbd22a</title>
<polygon fill="none" stroke="#c4c5bf" points="208,-91.5 208,-145.5 340,-145.5 340,-91.5 208,-91.5"/>
<text text-anchor="middle" x="224" y="-134.3" font-family="Arial" font-size="9.00" fill="#c4c5bf">rate</text>
<polyline fill="none" stroke="#c4c5bf" points="240,-127.5 240,-145.5 "/>
<text text-anchor="middle" x="257" y="-134.3" font-family="Arial" font-size="9.00" fill="#c4c5bf">duty</text>
<polyline fill="none" stroke="#c4c5bf" points="274,-127.5 274,-145.5 "/>
<text text-anchor="middle" x="290" y="-134.3" font-family="Arial" font-size="9.00" fill="#c4c5bf">min</text>
<polyline fill="none" stroke="#c4c5bf" points="306,-127.5 306,-145.5 "/>
<text text-anchor="middle" x="323" y="-134.3" font-family="Arial" font-size="9.00" fill="#c4c5bf">max</text>
<polyline fill="none" stroke="#c4c5bf" points="208,-127.5 340,-127.5 "/>
<text text-anchor="middle" x="274" y="-116.3" font-family="Arial" font-size="9.00" fill="#c4c5bf">UGLfo: nfffbd22a</text>
<polyline fill="none" stroke="#c4c5bf" points="208,-109.5 340,-109.5 "/>
<text text-anchor="middle" x="274" y="-98.3" font-family="Arial" font-size="9.00" fill="#c4c5bf">wave</text>
</g>
<!-- o -->
<g id="node4" class="node">
<title>o</title>
<polygon fill="none" stroke="#c4c5bf" points="147.5,-0.5 147.5,-54.5 212.5,-54.5 212.5,-0.5 147.5,-0.5"/>
<text text-anchor="middle" x="162" y="-43.3" font-family="Arial" font-size="9.00" fill="#c4c5bf">in1</text>
<polyline fill="none" stroke="#c4c5bf" points="176.5,-36.5 176.5,-54.5 "/>
<text text-anchor="middle" x="194.5" y="-43.3" font-family="Arial" font-size="9.00" fill="#c4c5bf">level</text>
<polyline fill="none" stroke="#c4c5bf" points="147.5,-36.5 212.5,-36.5 "/>
<text text-anchor="middle" x="180" y="-25.3" font-family="Arial" font-size="9.00" fill="#c4c5bf">UGFade: o</text>
<polyline fill="none" stroke="#c4c5bf" points="147.5,-18.5 212.5,-18.5 "/>
<text text-anchor="middle" x="180" y="-7.3" font-family="Arial" font-size="9.00" fill="#c4c5bf">out1</text>
</g>
<!-- nfffbd22a&#45;&gt;o -->
<g id="edge3" class="edge">
<title>nfffbd22a:s&#45;&gt;o:n</title>
<path fill="none" stroke="#c4c5bf" d="M274,-91C274,-54.37 202.82,-89.61 195.59,-60.28"/>
<polygon fill="#c4c5bf" stroke="#c4c5bf" points="197.29,-59.77 195,-55 193.82,-60.16 197.29,-59.77"/>
</g>
<!-- s&#45;&gt;o -->
<g id="edge2" class="edge">
<title>s:s&#45;&gt;o:n</title>
<path fill="none" stroke="#c4c5bf" d="M83,-91C83,-54.37 154.18,-89.61 161.41,-60.28"/>
<polygon fill="#c4c5bf" stroke="#c4c5bf" points="163.18,-60.16 162,-55 159.71,-59.77 163.18,-60.16"/>
</g>
</g>
</svg>
