<?xml version="1.0" encoding="UTF-8" standalone="no"?>
<!DOCTYPE svg PUBLIC "-//W3C//DTD SVG 1.1//EN"
 "http://www.w3.org/Graphics/SVG/1.1/DTD/svg11.dtd">
<!-- Generated by graphviz version 13.0.1 (20250615.1724)
 -->
<!-- Title: GenGraph Pages: 1 -->
<svg width="340pt" height="250pt"
 viewBox="0.00 0.00 340.00 250.00" xmlns="http://www.w3.org/2000/svg" xmlns:xlink="http://www.w3.org/1999/xlink">
<g id="graph0" class="graph" transform="scale(1 1) rotate(0) translate(4 245.5)">
<title>GenGraph</title>
<polygon fill="#12131e" stroke="none" points="-4,4 -4,-245.5 336.25,-245.5 336.25,4 -4,4"/>
<!-- n15da666c -->
<g id="node1" class="node">
<title>n15da666c</title>
<polygon fill="none" stroke="#c4c5bf" points="0,-185.5 0,-241 129.25,-241 129.25,-185.5 0,-185.5"/>
<text xml:space="preserve" text-anchor="middle" x="15.88" y="-228.45" font-family="Arial" font-size="9.00" fill="#c4c5bf">rate</text>
<polyline fill="none" stroke="#c4c5bf" points="31.75,-222.5 31.75,-241"/>
<text xml:space="preserve" text-anchor="middle" x="48.38" y="-228.45" font-family="Arial" font-size="9.00" fill="#c4c5bf">duty</text>
<polyline fill="none" stroke="#c4c5bf" points="65,-222.5 65,-241"/>
<text xml:space="preserve" text-anchor="middle" x="80.5" y="-228.45" font-family="Arial" font-size="9.00" fill="#c4c5bf">min</text>
<polyline fill="none" stroke="#c4c5bf" points="96,-222.5 96,-241"/>
<text xml:space="preserve" text-anchor="middle" x="112.62" y="-228.45" font-family="Arial" font-size="9.00" fill="#c4c5bf">max</text>
<polyline fill="none" stroke="#c4c5bf" points="0,-222.5 129.25,-222.5"/>
<text xml:space="preserve" text-anchor="middle" x="64.62" y="-209.95" font-family="Arial" font-size="9.00" fill="#c4c5bf">UGLfo: n15da666c</text>
<polyline fill="none" stroke="#c4c5bf" points="0,-204 129.25,-204"/>
<text xml:space="preserve" text-anchor="middle" x="64.38" y="-191.45" font-family="Arial" font-size="9.00" fill="#c4c5bf">wave</text>
</g>
<!-- s -->
<g id="node3" class="node">
<title>s</title>
<polygon fill="none" stroke="#c4c5bf" points="47.88,-93 47.88,-148.5 185.38,-148.5 185.38,-93 47.88,-93"/>
<text xml:space="preserve" text-anchor="middle" x="63.75" y="-135.95" font-family="Arial" font-size="9.00" fill="#c4c5bf">freq</text>
<polyline fill="none" stroke="#c4c5bf" points="79.62,-130 79.62,-148.5"/>
<text xml:space="preserve" text-anchor="middle" x="100.38" y="-135.95" font-family="Arial" font-size="9.00" fill="#c4c5bf">phase</text>
<polyline fill="none" stroke="#c4c5bf" points="121.12,-130 121.12,-148.5"/>
<text xml:space="preserve" text-anchor="middle" x="136.62" y="-135.95" font-family="Arial" font-size="9.00" fill="#c4c5bf">min</text>
<polyline fill="none" stroke="#c4c5bf" points="152.12,-130 152.12,-148.5"/>
<text xml:space="preserve" text-anchor="middle" x="168.75" y="-135.95" font-family="Arial" font-size="9.00" fill="#c4c5bf">max</text>
<polyline fill="none" stroke="#c4c5bf" points="47.88,-130 185.38,-130"/>
<text xml:space="preserve" text-anchor="middle" x="116.62" y="-117.45" font-family="Arial" font-size="9.00" fill="#c4c5bf">UGSine: s</text>
<polyline fill="none" stroke="#c4c5bf" points="47.88,-111.5 185.38,-111.5"/>
<text xml:space="preserve" text-anchor="middle" x="80.75" y="-98.95" font-family="Arial" font-size="9.00" fill="#c4c5bf">wave</text>
<polyline fill="none" stroke="#c4c5bf" points="113.62,-93 113.62,-111.5"/>
<text xml:space="preserve" text-anchor="middle" x="149.25" y="-98.95" font-family="Arial" font-size="9.00" fill="#c4c5bf">trigger</text>
</g>
<!-- n15da666c&#45;&gt;s -->
<g id="edge1" class="edge">
<title>n15da666c:s&#45;&gt;s:n</title>
<path fill="none" stroke="#c4c5bf" d="M64.38,-185C64.38,-171.37 63.92,-166.45 63.79,-155.41"/>
<polygon fill="#c4c5bf" stroke="#c4c5bf" points="65.54,-155.5 63.76,-150.51 62.04,-155.52 65.54,-155.5"/>
</g>
<!-- nfffbd22a -->
<g id="node2" class="node">
<title>nfffbd22a</title>
<polygon fill="none" stroke="#c4c5bf" points="203,-93 203,-148.5 332.25,-148.5 332.25,-93 203,-93"/>
<text xml:space="preserve" text-anchor="middle" x="218.88" y="-135.95" font-family="Arial" font-size="9.00" fill="#c4c5bf">rate</text>
<polyline fill="none" stroke="#c4c5bf" points="234.75,-130 234.75,-148.5"/>
<text xml:space="preserve" text-anchor="middle" x="251.38" y="-135.95" font-family="Arial" font-size="9.00" fill="#c4c5bf">duty</text>
<polyline fill="none" stroke="#c4c5bf" points="268,-130 268,-148.5"/>
<text xml:space="preserve" text-anchor="middle" x="283.5" y="-135.95" font-family="Arial" font-size="9.00" fill="#c4c5bf">min</text>
<polyline fill="none" stroke="#c4c5bf" points="299,-130 299,-148.5"/>
<text xml:space="preserve" text-anchor="middle" x="315.62" y="-135.95" font-family="Arial" font-size="9.00" fill="#c4c5bf">max</text>
<polyline fill="none" stroke="#c4c5bf" points="203,-130 332.25,-130"/>
<text xml:space="preserve" text-anchor="middle" x="267.62" y="-117.45" font-family="Arial" font-size="9.00" fill="#c4c5bf">UGLfo: nfffbd22a</text>
<polyline fill="none" stroke="#c4c5bf" points="203,-111.5 332.25,-111.5"/>
<text xml:space="preserve" text-anchor="middle" x="267.38" y="-98.95" font-family="Arial" font-size="9.00" fill="#c4c5bf">wave</text>
</g>
<!-- o -->
<g id="node4" class="node">
<title>o</title>
<polygon fill="none" stroke="#c4c5bf" points="143.5,-0.5 143.5,-56 207.75,-56 207.75,-0.5 143.5,-0.5"/>
<text xml:space="preserve" text-anchor="middle" x="157.88" y="-43.45" font-family="Arial" font-size="9.00" fill="#c4c5bf">in1</text>
<polyline fill="none" stroke="#c4c5bf" points="172.25,-37.5 172.25,-56"/>
<text xml:space="preserve" text-anchor="middle" x="190" y="-43.45" font-family="Arial" font-size="9.00" fill="#c4c5bf">level</text>
<polyline fill="none" stroke="#c4c5bf" points="143.5,-37.5 207.75,-37.5"/>
<text xml:space="preserve" text-anchor="middle" x="175.62" y="-24.95" font-family="Arial" font-size="9.00" fill="#c4c5bf">UGFade: o</text>
<polyline fill="none" stroke="#c4c5bf" points="143.5,-19 207.75,-19"/>
<text xml:space="preserve" text-anchor="middle" x="175.5" y="-6.45" font-family="Arial" font-size="9.00" fill="#c4c5bf">out1</text>
</g>
<!-- nfffbd22a&#45;&gt;o -->
<g id="edge3" class="edge">
<title>nfffbd22a:s&#45;&gt;o:n</title>
<path fill="none" stroke="#c4c5bf" d="M267.38,-92.5C267.38,-56.94 199.37,-89.75 190.87,-62.74"/>
<polygon fill="#c4c5bf" stroke="#c4c5bf" points="192.63,-62.71 190.21,-58 189.17,-63.19 192.63,-62.71"/>
</g>
<!-- s&#45;&gt;o -->
<g id="edge2" class="edge">
<title>s:s&#45;&gt;o:n</title>
<path fill="none" stroke="#c4c5bf" d="M80.75,-92.5C80.75,-57.04 148.54,-89.67 157.01,-62.72"/>
<polygon fill="#c4c5bf" stroke="#c4c5bf" points="158.71,-63.19 157.67,-58 155.24,-62.71 158.71,-63.19"/>
</g>
</g>
</svg>
