<?xml version="1.0" encoding="UTF-8" standalone="no"?>
<!DOCTYPE svg PUBLIC "-//W3C//DTD SVG 1.1//EN"
 "http://www.w3.org/Graphics/SVG/1.1/DTD/svg11.dtd">
<!-- Generated by graphviz version 13.0.1 (20250615.1724)
 -->
<!-- Title: GenGraph Pages: 1 -->
<svg width="240pt" height="250pt"
 viewBox="0.00 0.00 240.00 250.00" xmlns="http://www.w3.org/2000/svg" xmlns:xlink="http://www.w3.org/1999/xlink">
<g id="graph0" class="graph" transform="scale(1 1) rotate(0) translate(4 245.5)">
<title>GenGraph</title>
<polygon fill="#12131e" stroke="none" points="-4,4 -4,-245.5 235.75,-245.5 235.75,4 -4,4"/>
<!-- clock -->
<g id="node1" class="node">
<title>clock</title>
<polygon fill="none" stroke="#c4c5bf" points="52.25,-185.5 52.25,-241 130.5,-241 130.5,-185.5 52.25,-185.5"/>
<text xml:space="preserve" text-anchor="middle" x="91" y="-228.45" font-family="Arial" font-size="9.00" fill="#c4c5bf">in</text>
<polyline fill="none" stroke="#c4c5bf" points="52.25,-222.5 130.5,-222.5"/>
<text xml:space="preserve" text-anchor="middle" x="91.38" y="-209.95" font-family="Arial" font-size="9.00" fill="#c4c5bf">UGClock: clock</text>
<polyline fill="none" stroke="#c4c5bf" points="52.25,-204 130.5,-204"/>
<text xml:space="preserve" text-anchor="middle" x="91.12" y="-191.45" font-family="Arial" font-size="9.00" fill="#c4c5bf">out</text>
</g>
<!-- n319a8e09 -->
<g id="node2" class="node">
<title>n319a8e09</title>
<polygon fill="none" stroke="#c4c5bf" points="0,-93 0,-148.5 106.75,-148.5 106.75,-93 0,-93"/>
<text xml:space="preserve" text-anchor="middle" x="28.62" y="-135.95" font-family="Arial" font-size="9.00" fill="#c4c5bf">trigger</text>
<polyline fill="none" stroke="#c4c5bf" points="57.25,-130 57.25,-148.5"/>
<text xml:space="preserve" text-anchor="middle" x="81.88" y="-135.95" font-family="Arial" font-size="9.00" fill="#c4c5bf">step</text>
<polyline fill="none" stroke="#c4c5bf" points="0,-130 106.75,-130"/>
<text xml:space="preserve" text-anchor="middle" x="53.38" y="-117.45" font-family="Arial" font-size="9.00" fill="#c4c5bf">UGSelect: n319a8e09</text>
<polyline fill="none" stroke="#c4c5bf" points="0,-111.5 106.75,-111.5"/>
<text xml:space="preserve" text-anchor="middle" x="53.38" y="-98.95" font-family="Arial" font-size="9.00" fill="#c4c5bf">out</text>
</g>
<!-- clock&#45;&gt;n319a8e09 -->
<g id="edge1" class="edge">
<title>clock:s&#45;&gt;n319a8e09:n</title>
<path fill="none" stroke="#c4c5bf" d="M91.12,-185C91.12,-155.32 37.56,-177.21 29.61,-155.19"/>
<polygon fill="#c4c5bf" stroke="#c4c5bf" points="31.37,-155.16 28.86,-150.49 27.92,-155.71 31.37,-155.16"/>
</g>
<!-- n684700ae -->
<g id="node3" class="node">
<title>n684700ae</title>
<polygon fill="none" stroke="#c4c5bf" points="125,-93 125,-148.5 231.75,-148.5 231.75,-93 125,-93"/>
<text xml:space="preserve" text-anchor="middle" x="153.62" y="-135.95" font-family="Arial" font-size="9.00" fill="#c4c5bf">trigger</text>
<polyline fill="none" stroke="#c4c5bf" points="182.25,-130 182.25,-148.5"/>
<text xml:space="preserve" text-anchor="middle" x="206.88" y="-135.95" font-family="Arial" font-size="9.00" fill="#c4c5bf">step</text>
<polyline fill="none" stroke="#c4c5bf" points="125,-130 231.75,-130"/>
<text xml:space="preserve" text-anchor="middle" x="178.38" y="-117.45" font-family="Arial" font-size="9.00" fill="#c4c5bf">UGSelect: n684700ae</text>
<polyline fill="none" stroke="#c4c5bf" points="125,-111.5 231.75,-111.5"/>
<text xml:space="preserve" text-anchor="middle" x="178.38" y="-98.95" font-family="Arial" font-size="9.00" fill="#c4c5bf">out</text>
</g>
<!-- clock&#45;&gt;n684700ae -->
<g id="edge2" class="edge">
<title>clock:s&#45;&gt;n684700ae:n</title>
<path fill="none" stroke="#c4c5bf" d="M91.12,-185C91.12,-155.32 144.69,-177.21 152.64,-155.19"/>
<polygon fill="#c4c5bf" stroke="#c4c5bf" points="154.33,-155.71 153.39,-150.49 150.88,-155.16 154.33,-155.71"/>
</g>
<!-- noise -->
<g id="node4" class="node">
<title>noise</title>
<polygon fill="none" stroke="#c4c5bf" points="76.5,-0.5 76.5,-56 156.25,-56 156.25,-0.5 76.5,-0.5"/>
<text xml:space="preserve" text-anchor="middle" x="95.5" y="-43.45" font-family="Arial" font-size="9.00" fill="#c4c5bf">min</text>
<polyline fill="none" stroke="#c4c5bf" points="114.5,-37.5 114.5,-56"/>
<text xml:space="preserve" text-anchor="middle" x="135.12" y="-43.45" font-family="Arial" font-size="9.00" fill="#c4c5bf">max</text>
<polyline fill="none" stroke="#c4c5bf" points="76.5,-37.5 156.25,-37.5"/>
<text xml:space="preserve" text-anchor="middle" x="116.38" y="-24.95" font-family="Arial" font-size="9.00" fill="#c4c5bf">UGWhite: noise</text>
<polyline fill="none" stroke="#c4c5bf" points="76.5,-19 156.25,-19"/>
<text xml:space="preserve" text-anchor="middle" x="116.38" y="-6.45" font-family="Arial" font-size="9.00" fill="#c4c5bf">out</text>
</g>
<!-- n319a8e09&#45;&gt;noise -->
<g id="edge4" class="edge">
<title>n319a8e09:s&#45;&gt;noise:n</title>
<path fill="none" stroke="#c4c5bf" d="M53.38,-92.5C53.38,-70.18 87.97,-78.98 94.46,-62.49"/>
<polygon fill="#c4c5bf" stroke="#c4c5bf" points="96.11,-63.22 95.24,-57.99 92.66,-62.62 96.11,-63.22"/>
</g>
<!-- n684700ae&#45;&gt;noise -->
<g id="edge3" class="edge">
<title>n684700ae:s&#45;&gt;noise:n</title>
<path fill="none" stroke="#c4c5bf" d="M178.38,-92.5C178.38,-69.83 142.85,-79.22 136.19,-62.57"/>
<polygon fill="#c4c5bf" stroke="#c4c5bf" points="137.98,-62.61 135.39,-57.99 134.53,-63.22 137.98,-62.61"/>
</g>
</g>
</svg>
