<?xml version="1.0" encoding="UTF-8" standalone="no"?>
<!DOCTYPE svg PUBLIC "-//W3C//DTD SVG 1.1//EN"
 "http://www.w3.org/Graphics/SVG/1.1/DTD/svg11.dtd">
<!-- Generated by graphviz version 2.43.0 (0)
 -->
<!-- Title: GenGraph Pages: 1 -->
<svg width="240pt" height="245pt"
 viewBox="0.00 0.00 240.00 245.00" xmlns="http://www.w3.org/2000/svg" xmlns:xlink="http://www.w3.org/1999/xlink">
<g id="graph0" class="graph" transform="scale(1 1) rotate(0) translate(4 241)">
<title>GenGraph</title>
<polygon fill="#12131e" stroke="transparent" points="-4,4 -4,-241 236,-241 236,4 -4,4"/>
<!-- clock -->
<g id="node1" class="node">
<title>clock</title>
<polygon fill="none" stroke="#c4c5bf" points="51,-182.5 51,-236.5 130,-236.5 130,-182.5 51,-182.5"/>
<text text-anchor="middle" x="90.5" y="-225.3" font-family="Arial" font-size="9.00" fill="#c4c5bf">in</text>
<polyline fill="none" stroke="#c4c5bf" points="51,-218.5 130,-218.5 "/>
<text text-anchor="middle" x="90.5" y="-207.3" font-family="Arial" font-size="9.00" fill="#c4c5bf">UGClock: clock</text>
<polyline fill="none" stroke="#c4c5bf" points="51,-200.5 130,-200.5 "/>
<text text-anchor="middle" x="90.5" y="-189.3" font-family="Arial" font-size="9.00" fill="#c4c5bf">out</text>
</g>
<!-- n319a8e09 -->
<g id="node2" class="node">
<title>n319a8e09</title>
<polygon fill="none" stroke="#c4c5bf" points="0,-91.5 0,-145.5 107,-145.5 107,-91.5 0,-91.5"/>
<text text-anchor="middle" x="29" y="-134.3" font-family="Arial" font-size="9.00" fill="#c4c5bf">trigger</text>
<polyline fill="none" stroke="#c4c5bf" points="58,-127.5 58,-145.5 "/>
<text text-anchor="middle" x="82.5" y="-134.3" font-family="Arial" font-size="9.00" fill="#c4c5bf">step</text>
<polyline fill="none" stroke="#c4c5bf" points="0,-127.5 107,-127.5 "/>
<text text-anchor="middle" x="53.5" y="-116.3" font-family="Arial" font-size="9.00" fill="#c4c5bf">UGSelect: n319a8e09</text>
<polyline fill="none" stroke="#c4c5bf" points="0,-109.5 107,-109.5 "/>
<text text-anchor="middle" x="53.5" y="-98.3" font-family="Arial" font-size="9.00" fill="#c4c5bf">out</text>
</g>
<!-- clock&#45;&gt;n319a8e09 -->
<g id="edge1" class="edge">
<title>clock:s&#45;&gt;n319a8e09:n</title>
<path fill="none" stroke="#c4c5bf" d="M90.5,-182C90.5,-152 35.55,-174.82 29.11,-151.01"/>
<polygon fill="#c4c5bf" stroke="#c4c5bf" points="30.84,-150.75 28.5,-146 27.37,-151.18 30.84,-150.75"/>
</g>
<!-- n684700ae -->
<g id="node3" class="node">
<title>n684700ae</title>
<polygon fill="none" stroke="#c4c5bf" points="125,-91.5 125,-145.5 232,-145.5 232,-91.5 125,-91.5"/>
<text text-anchor="middle" x="154" y="-134.3" font-family="Arial" font-size="9.00" fill="#c4c5bf">trigger</text>
<polyline fill="none" stroke="#c4c5bf" points="183,-127.5 183,-145.5 "/>
<text text-anchor="middle" x="207.5" y="-134.3" font-family="Arial" font-size="9.00" fill="#c4c5bf">step</text>
<polyline fill="none" stroke="#c4c5bf" points="125,-127.5 232,-127.5 "/>
<text text-anchor="middle" x="178.5" y="-116.3" font-family="Arial" font-size="9.00" fill="#c4c5bf">UGSelect: n684700ae</text>
<polyline fill="none" stroke="#c4c5bf" points="125,-109.5 232,-109.5 "/>
<text text-anchor="middle" x="178.5" y="-98.3" font-family="Arial" font-size="9.00" fill="#c4c5bf">out</text>
</g>
<!-- clock&#45;&gt;n684700ae -->
<g id="edge2" class="edge">
<title>clock:s&#45;&gt;n684700ae:n</title>
<path fill="none" stroke="#c4c5bf" d="M90.5,-182C90.5,-151.64 146.33,-175.12 152.88,-151.07"/>
<polygon fill="#c4c5bf" stroke="#c4c5bf" points="154.63,-151.18 153.5,-146 151.15,-150.75 154.63,-151.18"/>
</g>
<!-- noise -->
<g id="node4" class="node">
<title>noise</title>
<polygon fill="none" stroke="#c4c5bf" points="76.5,-0.5 76.5,-54.5 156.5,-54.5 156.5,-0.5 76.5,-0.5"/>
<text text-anchor="middle" x="96" y="-43.3" font-family="Arial" font-size="9.00" fill="#c4c5bf">min</text>
<polyline fill="none" stroke="#c4c5bf" points="115.5,-36.5 115.5,-54.5 "/>
<text text-anchor="middle" x="136" y="-43.3" font-family="Arial" font-size="9.00" fill="#c4c5bf">max</text>
<polyline fill="none" stroke="#c4c5bf" points="76.5,-36.5 156.5,-36.5 "/>
<text text-anchor="middle" x="116.5" y="-25.3" font-family="Arial" font-size="9.00" fill="#c4c5bf">UGWhite: noise</text>
<polyline fill="none" stroke="#c4c5bf" points="76.5,-18.5 156.5,-18.5 "/>
<text text-anchor="middle" x="116.5" y="-7.3" font-family="Arial" font-size="9.00" fill="#c4c5bf">out</text>
</g>
<!-- n319a8e09&#45;&gt;noise -->
<g id="edge4" class="edge">
<title>n319a8e09:s&#45;&gt;noise:n</title>
<path fill="none" stroke="#c4c5bf" d="M53.5,-91C53.5,-68.34 89.19,-77.76 94.77,-60.11"/>
<polygon fill="#c4c5bf" stroke="#c4c5bf" points="96.53,-60.2 95.5,-55 93.06,-59.7 96.53,-60.2"/>
</g>
<!-- n684700ae&#45;&gt;noise -->
<g id="edge3" class="edge">
<title>n684700ae:s&#45;&gt;noise:n</title>
<path fill="none" stroke="#c4c5bf" d="M178.5,-91C178.5,-68.34 142.81,-77.76 137.23,-60.11"/>
<polygon fill="#c4c5bf" stroke="#c4c5bf" points="138.94,-59.7 136.5,-55 135.47,-60.2 138.94,-59.7"/>
</g>
</g>
</svg>
