<?xml version="1.0" encoding="UTF-8" standalone="no"?>
<!DOCTYPE svg PUBLIC "-//W3C//DTD SVG 1.1//EN"
 "http://www.w3.org/Graphics/SVG/1.1/DTD/svg11.dtd">
<!-- Generated by graphviz version 13.0.1 (20250615.1724)
 -->
<!-- Title: GenGraph Pages: 1 -->
<svg width="267pt" height="250pt"
 viewBox="0.00 0.00 267.00 250.00" xmlns="http://www.w3.org/2000/svg" xmlns:xlink="http://www.w3.org/1999/xlink">
<g id="graph0" class="graph" transform="scale(1 1) rotate(0) translate(4 245.5)">
<title>GenGraph</title>
<polygon fill="#12131e" stroke="none" points="-4,4 -4,-245.5 263,-245.5 263,4 -4,4"/>
<!-- n72b3a530 -->
<g id="node1" class="node">
<title>n72b3a530</title>
<polygon fill="none" stroke="#c4c5bf" points="98.25,-185.5 98.25,-241 203.5,-241 203.5,-185.5 98.25,-185.5"/>
<text xml:space="preserve" text-anchor="middle" x="150.88" y="-228.45" font-family="Arial" font-size="9.00" fill="#c4c5bf"> </text>
<polyline fill="none" stroke="#c4c5bf" points="98.25,-222.5 203.5,-222.5"/>
<text xml:space="preserve" text-anchor="middle" x="150.88" y="-209.95" font-family="Arial" font-size="9.00" fill="#c4c5bf">UGConst: n72b3a530</text>
<polyline fill="none" stroke="#c4c5bf" points="98.25,-204 203.5,-204"/>
<text xml:space="preserve" text-anchor="middle" x="150.62" y="-191.45" font-family="Arial" font-size="9.00" fill="#c4c5bf">out</text>
</g>
<!-- lpf -->
<g id="node4" class="node">
<title>lpf</title>
<polygon fill="none" stroke="#c4c5bf" points="57.25,-93 57.25,-148.5 138.5,-148.5 138.5,-93 57.25,-93"/>
<text xml:space="preserve" text-anchor="middle" x="74" y="-135.95" font-family="Arial" font-size="9.00" fill="#c4c5bf">in</text>
<polyline fill="none" stroke="#c4c5bf" points="90.75,-130 90.75,-148.5"/>
<text xml:space="preserve" text-anchor="middle" x="114.62" y="-135.95" font-family="Arial" font-size="9.00" fill="#c4c5bf">cutoff</text>
<polyline fill="none" stroke="#c4c5bf" points="57.25,-130 138.5,-130"/>
<text xml:space="preserve" text-anchor="middle" x="97.88" y="-117.45" font-family="Arial" font-size="9.00" fill="#c4c5bf">UGLowPass: lpf</text>
<polyline fill="none" stroke="#c4c5bf" points="57.25,-111.5 138.5,-111.5"/>
<text xml:space="preserve" text-anchor="middle" x="97.62" y="-98.95" font-family="Arial" font-size="9.00" fill="#c4c5bf">out</text>
</g>
<!-- n72b3a530&#45;&gt;lpf -->
<g id="edge2" class="edge">
<title>n72b3a530:s&#45;&gt;lpf:n</title>
<path fill="none" stroke="#c4c5bf" d="M150.62,-185C150.62,-164.85 122.07,-169.98 115.82,-155.36"/>
<polygon fill="#c4c5bf" stroke="#c4c5bf" points="117.55,-155.08 114.9,-150.49 114.11,-155.72 117.55,-155.08"/>
</g>
<!-- n7da2ef51 -->
<g id="node2" class="node">
<title>n7da2ef51</title>
<polygon fill="none" stroke="#c4c5bf" points="156.75,-93 156.75,-148.5 259,-148.5 259,-93 156.75,-93"/>
<text xml:space="preserve" text-anchor="middle" x="207.88" y="-135.95" font-family="Arial" font-size="9.00" fill="#c4c5bf"> </text>
<polyline fill="none" stroke="#c4c5bf" points="156.75,-130 259,-130"/>
<text xml:space="preserve" text-anchor="middle" x="207.88" y="-117.45" font-family="Arial" font-size="9.00" fill="#c4c5bf">UGConst: n7da2ef51</text>
<polyline fill="none" stroke="#c4c5bf" points="156.75,-111.5 259,-111.5"/>
<text xml:space="preserve" text-anchor="middle" x="207.62" y="-98.95" font-family="Arial" font-size="9.00" fill="#c4c5bf">out</text>
</g>
<!-- hpf -->
<g id="node5" class="node">
<title>hpf</title>
<polygon fill="none" stroke="#c4c5bf" points="113.62,-0.5 113.62,-56 200.12,-56 200.12,-0.5 113.62,-0.5"/>
<text xml:space="preserve" text-anchor="middle" x="131.38" y="-43.45" font-family="Arial" font-size="9.00" fill="#c4c5bf">in</text>
<polyline fill="none" stroke="#c4c5bf" points="149.12,-37.5 149.12,-56"/>
<text xml:space="preserve" text-anchor="middle" x="174.5" y="-43.45" font-family="Arial" font-size="9.00" fill="#c4c5bf">cutoff</text>
<polyline fill="none" stroke="#c4c5bf" points="113.62,-37.5 200.12,-37.5"/>
<text xml:space="preserve" text-anchor="middle" x="156.88" y="-24.95" font-family="Arial" font-size="9.00" fill="#c4c5bf">UGHighPass: hpf</text>
<polyline fill="none" stroke="#c4c5bf" points="113.62,-19 200.12,-19"/>
<text xml:space="preserve" text-anchor="middle" x="156.5" y="-6.45" font-family="Arial" font-size="9.00" fill="#c4c5bf">out</text>
</g>
<!-- n7da2ef51&#45;&gt;hpf -->
<g id="edge4" class="edge">
<title>n7da2ef51:s&#45;&gt;hpf:n</title>
<path fill="none" stroke="#c4c5bf" d="M207.62,-92.5C207.62,-73.14 181.35,-76.95 175.6,-62.66"/>
<polygon fill="#c4c5bf" stroke="#c4c5bf" points="177.37,-62.6 174.77,-57.99 173.92,-63.22 177.37,-62.6"/>
</g>
<!-- noise -->
<g id="node3" class="node">
<title>noise</title>
<polygon fill="none" stroke="#c4c5bf" points="0,-185.5 0,-241 79.75,-241 79.75,-185.5 0,-185.5"/>
<text xml:space="preserve" text-anchor="middle" x="19" y="-228.45" font-family="Arial" font-size="9.00" fill="#c4c5bf">min</text>
<polyline fill="none" stroke="#c4c5bf" points="38,-222.5 38,-241"/>
<text xml:space="preserve" text-anchor="middle" x="58.62" y="-228.45" font-family="Arial" font-size="9.00" fill="#c4c5bf">max</text>
<polyline fill="none" stroke="#c4c5bf" points="0,-222.5 79.75,-222.5"/>
<text xml:space="preserve" text-anchor="middle" x="39.88" y="-209.95" font-family="Arial" font-size="9.00" fill="#c4c5bf">UGWhite: noise</text>
<polyline fill="none" stroke="#c4c5bf" points="0,-204 79.75,-204"/>
<text xml:space="preserve" text-anchor="middle" x="39.88" y="-191.45" font-family="Arial" font-size="9.00" fill="#c4c5bf">out</text>
</g>
<!-- noise&#45;&gt;lpf -->
<g id="edge1" class="edge">
<title>noise:s&#45;&gt;lpf:n</title>
<path fill="none" stroke="#c4c5bf" d="M39.88,-185C39.88,-165.37 66.94,-169.64 72.86,-155.23"/>
<polygon fill="#c4c5bf" stroke="#c4c5bf" points="74.55,-155.72 73.73,-150.49 71.11,-155.09 74.55,-155.72"/>
</g>
<!-- lpf&#45;&gt;hpf -->
<g id="edge3" class="edge">
<title>lpf:s&#45;&gt;hpf:n</title>
<path fill="none" stroke="#c4c5bf" d="M97.62,-92.5C97.62,-72.97 124.4,-77.07 130.25,-62.71"/>
<polygon fill="#c4c5bf" stroke="#c4c5bf" points="131.94,-63.22 131.11,-57.99 128.49,-62.6 131.94,-63.22"/>
</g>
</g>
</svg>
