<?xml version="1.0" encoding="UTF-8" standalone="no"?>
<!DOCTYPE svg PUBLIC "-//W3C//DTD SVG 1.1//EN"
 "http://www.w3.org/Graphics/SVG/1.1/DTD/svg11.dtd">
<!-- Generated by graphviz version 2.43.0 (0)
 -->
<!-- Title: GenGraph Pages: 1 -->
<svg width="270pt" height="245pt"
 viewBox="0.00 0.00 269.50 245.00" xmlns="http://www.w3.org/2000/svg" xmlns:xlink="http://www.w3.org/1999/xlink">
<g id="graph0" class="graph" transform="scale(1 1) rotate(0) translate(4 241)">
<title>GenGraph</title>
<polygon fill="#12131e" stroke="transparent" points="-4,4 -4,-241 265.5,-241 265.5,4 -4,4"/>
<!-- n72b3a530 -->
<g id="node1" class="node">
<title>n72b3a530</title>
<polygon fill="none" stroke="#c4c5bf" points="98,-182.5 98,-236.5 204,-236.5 204,-182.5 98,-182.5"/>
<text text-anchor="middle" x="151" y="-225.3" font-family="Arial" font-size="9.00" fill="#c4c5bf"> </text>
<polyline fill="none" stroke="#c4c5bf" points="98,-218.5 204,-218.5 "/>
<text text-anchor="middle" x="151" y="-207.3" font-family="Arial" font-size="9.00" fill="#c4c5bf">UGConst: n72b3a530</text>
<polyline fill="none" stroke="#c4c5bf" points="98,-200.5 204,-200.5 "/>
<text text-anchor="middle" x="151" y="-189.3" font-family="Arial" font-size="9.00" fill="#c4c5bf">out</text>
</g>
<!-- lpf -->
<g id="node4" class="node">
<title>lpf</title>
<polygon fill="none" stroke="#c4c5bf" points="58,-91.5 58,-145.5 140,-145.5 140,-91.5 58,-91.5"/>
<text text-anchor="middle" x="75" y="-134.3" font-family="Arial" font-size="9.00" fill="#c4c5bf">in</text>
<polyline fill="none" stroke="#c4c5bf" points="92,-127.5 92,-145.5 "/>
<text text-anchor="middle" x="116" y="-134.3" font-family="Arial" font-size="9.00" fill="#c4c5bf">cutoff</text>
<polyline fill="none" stroke="#c4c5bf" points="58,-127.5 140,-127.5 "/>
<text text-anchor="middle" x="99" y="-116.3" font-family="Arial" font-size="9.00" fill="#c4c5bf">UGLowPass: lpf</text>
<polyline fill="none" stroke="#c4c5bf" points="58,-109.5 140,-109.5 "/>
<text text-anchor="middle" x="99" y="-98.3" font-family="Arial" font-size="9.00" fill="#c4c5bf">out</text>
</g>
<!-- n72b3a530&#45;&gt;lpf -->
<g id="edge2" class="edge">
<title>n72b3a530:s&#45;&gt;lpf:n</title>
<path fill="none" stroke="#c4c5bf" d="M151,-182C151,-161.6 121.76,-167.06 116.73,-151.11"/>
<polygon fill="#c4c5bf" stroke="#c4c5bf" points="118.44,-150.7 116,-146 114.98,-151.2 118.44,-150.7"/>
</g>
<!-- n7da2ef51 -->
<g id="node2" class="node">
<title>n7da2ef51</title>
<polygon fill="none" stroke="#c4c5bf" points="158.5,-91.5 158.5,-145.5 261.5,-145.5 261.5,-91.5 158.5,-91.5"/>
<text text-anchor="middle" x="210" y="-134.3" font-family="Arial" font-size="9.00" fill="#c4c5bf"> </text>
<polyline fill="none" stroke="#c4c5bf" points="158.5,-127.5 261.5,-127.5 "/>
<text text-anchor="middle" x="210" y="-116.3" font-family="Arial" font-size="9.00" fill="#c4c5bf">UGConst: n7da2ef51</text>
<polyline fill="none" stroke="#c4c5bf" points="158.5,-109.5 261.5,-109.5 "/>
<text text-anchor="middle" x="210" y="-98.3" font-family="Arial" font-size="9.00" fill="#c4c5bf">out</text>
</g>
<!-- hpf -->
<g id="node5" class="node">
<title>hpf</title>
<polygon fill="none" stroke="#c4c5bf" points="114.5,-0.5 114.5,-54.5 201.5,-54.5 201.5,-0.5 114.5,-0.5"/>
<text text-anchor="middle" x="132.5" y="-43.3" font-family="Arial" font-size="9.00" fill="#c4c5bf">in</text>
<polyline fill="none" stroke="#c4c5bf" points="150.5,-36.5 150.5,-54.5 "/>
<text text-anchor="middle" x="176" y="-43.3" font-family="Arial" font-size="9.00" fill="#c4c5bf">cutoff</text>
<polyline fill="none" stroke="#c4c5bf" points="114.5,-36.5 201.5,-36.5 "/>
<text text-anchor="middle" x="158" y="-25.3" font-family="Arial" font-size="9.00" fill="#c4c5bf">UGHighPass: hpf</text>
<polyline fill="none" stroke="#c4c5bf" points="114.5,-18.5 201.5,-18.5 "/>
<text text-anchor="middle" x="158" y="-7.3" font-family="Arial" font-size="9.00" fill="#c4c5bf">out</text>
</g>
<!-- n7da2ef51&#45;&gt;hpf -->
<g id="edge4" class="edge">
<title>n7da2ef51:s&#45;&gt;hpf:n</title>
<path fill="none" stroke="#c4c5bf" d="M210,-91C210,-70.88 181.59,-75.85 176.71,-60.05"/>
<polygon fill="#c4c5bf" stroke="#c4c5bf" points="178.43,-59.71 176,-55 174.96,-60.2 178.43,-59.71"/>
</g>
<!-- noise -->
<g id="node3" class="node">
<title>noise</title>
<polygon fill="none" stroke="#c4c5bf" points="0,-182.5 0,-236.5 80,-236.5 80,-182.5 0,-182.5"/>
<text text-anchor="middle" x="19.5" y="-225.3" font-family="Arial" font-size="9.00" fill="#c4c5bf">min</text>
<polyline fill="none" stroke="#c4c5bf" points="39,-218.5 39,-236.5 "/>
<text text-anchor="middle" x="59.5" y="-225.3" font-family="Arial" font-size="9.00" fill="#c4c5bf">max</text>
<polyline fill="none" stroke="#c4c5bf" points="0,-218.5 80,-218.5 "/>
<text text-anchor="middle" x="40" y="-207.3" font-family="Arial" font-size="9.00" fill="#c4c5bf">UGWhite: noise</text>
<polyline fill="none" stroke="#c4c5bf" points="0,-200.5 80,-200.5 "/>
<text text-anchor="middle" x="40" y="-189.3" font-family="Arial" font-size="9.00" fill="#c4c5bf">out</text>
</g>
<!-- noise&#45;&gt;lpf -->
<g id="edge1" class="edge">
<title>noise:s&#45;&gt;lpf:n</title>
<path fill="none" stroke="#c4c5bf" d="M40,-182C40,-161.6 69.24,-167.06 74.27,-151.11"/>
<polygon fill="#c4c5bf" stroke="#c4c5bf" points="76.02,-151.2 75,-146 72.56,-150.7 76.02,-151.2"/>
</g>
<!-- lpf&#45;&gt;hpf -->
<g id="edge3" class="edge">
<title>lpf:s&#45;&gt;hpf:n</title>
<path fill="none" stroke="#c4c5bf" d="M99,-91C99,-71.16 126.57,-75.65 131.31,-59.99"/>
<polygon fill="#c4c5bf" stroke="#c4c5bf" points="133.05,-60.19 132,-55 129.58,-59.71 133.05,-60.19"/>
</g>
</g>
</svg>
